<?xml version="1.0" encoding="UTF-8" standalone="no"?>
<!-- Created with Inkscape (http://www.inkscape.org/) -->

<svg
   xmlns:dc="http://purl.org/dc/elements/1.1/"
   xmlns:cc="http://creativecommons.org/ns#"
   xmlns:rdf="http://www.w3.org/1999/02/22-rdf-syntax-ns#"
   xmlns:svg="http://www.w3.org/2000/svg"
   xmlns="http://www.w3.org/2000/svg"
   xmlns:xlink="http://www.w3.org/1999/xlink"
   xmlns:sodipodi="http://sodipodi.sourceforge.net/DTD/sodipodi-0.dtd"
   xmlns:inkscape="http://www.inkscape.org/namespaces/inkscape"
   width="24"
   height="24"
   id="svg2"
   version="1.1"
   inkscape:version="0.48.1 "
   sodipodi:docname="spectrum_24.svg"
   inkscape:export-filename="D:\Dropbox\Spectrum\icons\spectrum_24.png"
   inkscape:export-xdpi="90"
   inkscape:export-ydpi="90">
  <defs
     id="defs4">
    <linearGradient
       id="linearGradient3831">
      <stop
         style="stop-color:#000000;stop-opacity:1;"
         offset="0"
         id="stop3833" />
      <stop
         style="stop-color:#cdcdcd;stop-opacity:1;"
         offset="1"
         id="stop3835" />
    </linearGradient>
    <linearGradient
       id="linearGradient3757">
      <stop
         style="stop-color:#ff2300;stop-opacity:1;"
         offset="0"
         id="stop3759" />
      <stop
         id="stop3765"
         offset="0.25"
         style="stop-color:#ffec00;stop-opacity:1;" />
      <stop
         style="stop-color:#00ff17;stop-opacity:1;"
         offset="0.5"
         id="stop3767" />
      <stop
         id="stop3769"
         offset="0.75"
         style="stop-color:#00c8ff;stop-opacity:0.89710611;" />
      <stop
         style="stop-color:#9e2bff;stop-opacity:0.90996784;"
         offset="1"
         id="stop3761" />
    </linearGradient>
    <linearGradient
       inkscape:collect="always"
       xlink:href="#linearGradient3757"
       id="linearGradient3809"
       x1="-0.5"
       y1="24"
       x2="48.5"
       y2="24"
       gradientUnits="userSpaceOnUse"
       gradientTransform="matrix(0.5,0,0,0.5,0,1028.3622)" />
    <linearGradient
       inkscape:collect="always"
       xlink:href="#linearGradient3757"
       id="linearGradient3829"
       gradientUnits="userSpaceOnUse"
       gradientTransform="matrix(0.5,0,0,0.46511628,0,1030.0366)"
       x1="-0.5"
       y1="24"
       x2="48.5"
       y2="24" />
  </defs>
  <sodipodi:namedview
     id="base"
     pagecolor="#ffffff"
     bordercolor="#666666"
     borderopacity="1.0"
     inkscape:pageopacity="0.0"
     inkscape:pageshadow="2"
     inkscape:zoom="35.25"
     inkscape:cx="12.574841"
     inkscape:cy="11.506905"
     inkscape:document-units="px"
     inkscape:current-layer="layer1"
     showgrid="true"
     inkscape:window-width="1920"
     inkscape:window-height="1018"
     inkscape:window-x="-8"
     inkscape:window-y="-8"
     inkscape:window-maximized="1">
    <inkscape:grid
       type="xygrid"
       id="grid2985"
       empspacing="5"
       visible="true"
       enabled="true"
       snapvisiblegridlinesonly="true" />
  </sodipodi:namedview>
  <metadata
     id="metadata7">
    <rdf:RDF>
      <cc:Work
         rdf:about="">
        <dc:format>image/svg+xml</dc:format>
        <dc:type
           rdf:resource="http://purl.org/dc/dcmitype/StillImage" />
        <dc:title></dc:title>
      </cc:Work>
    </rdf:RDF>
  </metadata>
  <g
     inkscape:label="Layer 1"
     inkscape:groupmode="layer"
     id="layer1"
     transform="translate(0,-1028.3622)">
    <rect
       y="1028.3622"
       x="0"
       height="24"
       width="24"
       id="rect3015"
       style="fill:#ffffff;fill-opacity:1;stroke:none" />
    <rect
       style="opacity:0.2;fill:url(#linearGradient3809);fill-opacity:1;stroke:none"
       id="rect3801"
       width="24"
       height="24"
       x="0"
       y="1028.3622" />
    <path
       style="opacity:0.8;fill:url(#linearGradient3829);fill-opacity:1;stroke:none"
       d="m 12,1032.3622 c -1,6.9767 -7,12.093 -12,13.4884 l 0,6.5116 24,0 0,-6.5116 c -5,-1.3954 -11,-6.5117 -12,-13.4884 z"
       id="rect3821"
       inkscape:connector-curvature="0"
       sodipodi:nodetypes="cccccc" />
    <path
       style="opacity:0.8;fill:none;stroke:#000000;stroke-width:1px;stroke-linecap:round;stroke-linejoin:miter;stroke-opacity:1"
       d="m 0,1046.3622 c 5.0000002,-1.5517 11.000001,-7.2414 12,-15 1,7.7586 7,13.4483 12.000001,15"
       id="path2987"
       inkscape:connector-curvature="0"
       sodipodi:nodetypes="ccc" />
    <path
       sodipodi:type="arc"
       style="fill:#ffffff;fill-opacity:1;stroke:#000000;stroke-width:0.4285714;stroke-miterlimit:4;stroke-opacity:1;stroke-dasharray:none"
       id="path3791"
       sodipodi:cx="4.5"
       sodipodi:cy="16.5"
       sodipodi:rx="1.5"
       sodipodi:ry="1.5"
       d="m 6,16.5 a 1.5,1.5 0 1 1 -3,0 1.5,1.5 0 1 1 3,0 z"
       transform="matrix(1.1666667,0,0,1.1666667,6.7499998,1012.1122)" />
    <path
       transform="matrix(1.3333333,0,0,1.3333333,18,988.3622)"
       d="M 6,16.5 C 6,17.328427 5.3284271,18 4.5,18 3.6715729,18 3,17.328427 3,16.5 3,15.671573 3.6715729,15 4.5,15 5.3284271,15 6,15.671573 6,16.5 z"
       sodipodi:ry="1.5"
       sodipodi:rx="1.5"
       sodipodi:cy="16.5"
       sodipodi:cx="4.5"
       id="path3799"
       style="fill:#ffffff;fill-opacity:1;stroke:#000000;stroke-width:0.75;stroke-opacity:1"
       sodipodi:type="arc" />
    <path
       style="fill:none;stroke:#000000;stroke-width:1;stroke-linecap:round;stroke-linejoin:round;stroke-miterlimit:4;stroke-opacity:1;stroke-dasharray:none"
       d="m 4.5,1032.3622 0,16.5 15,0"
       id="path3811"
       inkscape:connector-curvature="0"
       sodipodi:nodetypes="ccc" />
    <path
       style="fill:none;stroke:#000000;stroke-width:1px;stroke-linecap:round;stroke-linejoin:round;stroke-opacity:1"
       d="M 4,8 7,4 10,8"
       id="path3813"
       inkscape:connector-curvature="0"
       transform="translate(0,1004.3622)" />
    <path
       style="fill:none;stroke:#000000;stroke-width:0.5;stroke-linecap:round;stroke-linejoin:round;stroke-miterlimit:4;stroke-opacity:1;stroke-dasharray:none"
       d="m 17,1046.8622 3,2 -3,2"
       id="path3815"
       inkscape:connector-curvature="0"
       sodipodi:nodetypes="ccc" />
    <path
       transform="matrix(1.1666667,0,0,1.1666667,10.430854,1020.1122)"
       d="m 6,16.5 a 1.5,1.5 0 1 1 -3,0 1.5,1.5 0 1 1 3,0 z"
       sodipodi:ry="1.5"
       sodipodi:rx="1.5"
       sodipodi:cy="16.5"
       sodipodi:cx="4.5"
       id="path3784"
       style="fill:#ffffff;fill-opacity:1;stroke:#000000;stroke-width:0.4285714;stroke-miterlimit:4;stroke-opacity:1;stroke-dasharray:none"
       sodipodi:type="arc" />
    <path
       sodipodi:type="arc"
       style="fill:#ffffff;fill-opacity:1;stroke:#000000;stroke-width:0.4285714;stroke-miterlimit:4;stroke-opacity:1;stroke-dasharray:none"
       id="path3786"
       sodipodi:cx="4.5"
       sodipodi:cy="16.5"
       sodipodi:rx="1.5"
       sodipodi:ry="1.5"
       d="m 6,16.5 a 1.5,1.5 0 1 1 -3,0 1.5,1.5 0 1 1 3,0 z"
       transform="matrix(1.1666667,0,0,1.1666667,3.0620567,1020.1122)" />
    <path
       sodipodi:nodetypes="ccc"
       inkscape:connector-curvature="0"
       id="path3788"
       d="m 2.5,1034.3622 2,-3 2,3"
       style="fill:none;stroke:#000000;stroke-width:0.5;stroke-linecap:round;stroke-linejoin:round;stroke-miterlimit:4;stroke-opacity:1;stroke-dasharray:none" />
    <path
       transform="matrix(1.1666667,0,0,1.1666667,-3.2500002,1026.1122)"
       d="m 6,16.5 a 1.5,1.5 0 1 1 -3,0 1.5,1.5 0 1 1 3,0 z"
       sodipodi:ry="1.5"
       sodipodi:rx="1.5"
       sodipodi:cy="16.5"
       sodipodi:cx="4.5"
       id="path3790"
       style="fill:#ffffff;fill-opacity:1;stroke:#000000;stroke-width:0.4285714;stroke-miterlimit:4;stroke-opacity:1;stroke-dasharray:none"
       sodipodi:type="arc" />
    <path
       sodipodi:type="arc"
       style="fill:#ffffff;fill-opacity:1;stroke:#000000;stroke-width:0.4285714;stroke-miterlimit:4;stroke-opacity:1;stroke-dasharray:none"
       id="path3792"
       sodipodi:cx="4.5"
       sodipodi:cy="16.5"
       sodipodi:rx="1.5"
       sodipodi:ry="1.5"
       d="m 6,16.5 a 1.5,1.5 0 1 1 -3,0 1.5,1.5 0 1 1 3,0 z"
       transform="matrix(1.1666667,0,0,1.1666667,16.75,1026.1122)" />
  </g>
</svg>
