<?xml version="1.0" encoding="UTF-8" standalone="no"?>
<!-- Created with Inkscape (http://www.inkscape.org/) -->

<svg
   xmlns:dc="http://purl.org/dc/elements/1.1/"
   xmlns:cc="http://creativecommons.org/ns#"
   xmlns:rdf="http://www.w3.org/1999/02/22-rdf-syntax-ns#"
   xmlns:svg="http://www.w3.org/2000/svg"
   xmlns="http://www.w3.org/2000/svg"
   xmlns:xlink="http://www.w3.org/1999/xlink"
   xmlns:sodipodi="http://sodipodi.sourceforge.net/DTD/sodipodi-0.dtd"
   xmlns:inkscape="http://www.inkscape.org/namespaces/inkscape"
   width="48"
   height="48"
   id="svg2"
   version="1.1"
   inkscape:version="0.48.1 "
   sodipodi:docname="spectrum_48.svg"
   inkscape:export-filename="D:\Dropbox\Spectrum\icons\spectrum_40.png"
   inkscape:export-xdpi="75"
   inkscape:export-ydpi="75">
  <defs
     id="defs4">
    <linearGradient
       id="linearGradient3831">
      <stop
         style="stop-color:#000000;stop-opacity:1;"
         offset="0"
         id="stop3833" />
      <stop
         style="stop-color:#cdcdcd;stop-opacity:1;"
         offset="1"
         id="stop3835" />
    </linearGradient>
    <linearGradient
       id="linearGradient3757">
      <stop
         style="stop-color:#ff2300;stop-opacity:1;"
         offset="0"
         id="stop3759" />
      <stop
         id="stop3765"
         offset="0.25"
         style="stop-color:#ffec00;stop-opacity:1;" />
      <stop
         style="stop-color:#00ff17;stop-opacity:1;"
         offset="0.5"
         id="stop3767" />
      <stop
         id="stop3769"
         offset="0.75"
         style="stop-color:#00c8ff;stop-opacity:1;" />
      <stop
         style="stop-color:#9e2bff;stop-opacity:1;"
         offset="1"
         id="stop3761" />
    </linearGradient>
    <linearGradient
       inkscape:collect="always"
       xlink:href="#linearGradient3757"
       id="linearGradient3809"
       x1="-0.5"
       y1="24"
       x2="48.5"
       y2="24"
       gradientUnits="userSpaceOnUse" />
    <linearGradient
       inkscape:collect="always"
       xlink:href="#linearGradient3757"
       id="linearGradient3829"
       gradientUnits="userSpaceOnUse"
       gradientTransform="translate(0,1004.3622)"
       x1="-0.5"
       y1="24"
       x2="48.5"
       y2="24" />
  </defs>
  <sodipodi:namedview
     id="base"
     pagecolor="#ffffff"
     bordercolor="#666666"
     borderopacity="1.0"
     inkscape:pageopacity="0.0"
     inkscape:pageshadow="2"
     inkscape:zoom="11.313709"
     inkscape:cx="8.3598667"
     inkscape:cy="25.585021"
     inkscape:document-units="px"
     inkscape:current-layer="layer1"
     showgrid="true"
     inkscape:window-width="1920"
     inkscape:window-height="1018"
     inkscape:window-x="-8"
     inkscape:window-y="-8"
     inkscape:window-maximized="1">
    <inkscape:grid
       type="xygrid"
       id="grid2985"
       empspacing="5"
       visible="true"
       enabled="true"
       snapvisiblegridlinesonly="true" />
  </sodipodi:namedview>
  <metadata
     id="metadata7">
    <rdf:RDF>
      <cc:Work
         rdf:about="">
        <dc:format>image/svg+xml</dc:format>
        <dc:type
           rdf:resource="http://purl.org/dc/dcmitype/StillImage" />
        <dc:title></dc:title>
      </cc:Work>
    </rdf:RDF>
  </metadata>
  <g
     inkscape:label="Layer 1"
     inkscape:groupmode="layer"
     id="layer1"
     transform="translate(0,-1004.3622)">
    <rect
       ry="5"
       y="1004.3622"
       x="0"
       height="48"
       width="48"
       id="rect3015"
       style="fill:#ffffff;fill-opacity:1;stroke:none" />
    <rect
       style="opacity:0.2;fill:url(#linearGradient3809);fill-opacity:1;stroke:none"
       id="rect3801"
       width="48"
       height="48"
       x="0"
       y="0"
       ry="5"
       transform="translate(0,1004.3622)" />
    <path
       style="opacity:0.8;fill:url(#linearGradient3829);fill-opacity:1;stroke:none"
       d="m 24,1009.3622 c -2,15 -14,26 -24,29 l 0,9 c 0,2.77 2.23,5 5,5 l 38,0 c 2.77,0 5,-2.23 5,-5 l 0,-9 c -10,-3 -22,-14 -24,-29 z"
       id="rect3821"
       inkscape:connector-curvature="0" />
    <path
       style="opacity:0.80000000000000004;fill:none;stroke:#000000;stroke-width:1px;stroke-linecap:round;stroke-linejoin:miter;stroke-opacity:1"
       d="m 0,1038.3622 c 10,-3 22,-14 24,-29 2,15 14,26 24,29"
       id="path2987"
       inkscape:connector-curvature="0"
       sodipodi:nodetypes="ccc" />
    <path
       transform="matrix(1.3333333,0,0,1.3333333,-3.125,1015.4247)"
       d="M 6,16.5 C 6,17.328427 5.3284271,18 4.5,18 3.6715729,18 3,17.328427 3,16.5 3,15.671573 3.6715729,15 4.5,15 5.3284271,15 6,15.671573 6,16.5 z"
       sodipodi:ry="1.5"
       sodipodi:rx="1.5"
       sodipodi:cy="16.5"
       sodipodi:cx="4.5"
       id="path3785"
       style="fill:#ffffff;fill-opacity:1;stroke:#000000;stroke-width:0.75;stroke-opacity:1"
       sodipodi:type="arc" />
    <path
       sodipodi:type="arc"
       style="fill:#ffffff;fill-opacity:1;stroke:#000000;stroke-width:0.75;stroke-opacity:1"
       id="path3789"
       sodipodi:cx="4.5"
       sodipodi:cy="16.5"
       sodipodi:rx="1.5"
       sodipodi:ry="1.5"
       d="M 6,16.5 C 6,17.328427 5.3284271,18 4.5,18 3.6715729,18 3,17.328427 3,16.5 3,15.671573 3.6715729,15 4.5,15 5.3284271,15 6,15.671573 6,16.5 z"
       transform="matrix(1.3333333,0,0,1.3333333,39.0625,1015.4247)" />
    <path
       sodipodi:type="arc"
       style="fill:#ffffff;fill-opacity:1;stroke:#000000;stroke-width:0.75;stroke-opacity:1"
       id="path3791"
       sodipodi:cx="4.5"
       sodipodi:cy="16.5"
       sodipodi:rx="1.5"
       sodipodi:ry="1.5"
       d="M 6,16.5 C 6,17.328427 5.3284271,18 4.5,18 3.6715729,18 3,17.328427 3,16.5 3,15.671573 3.6715729,15 4.5,15 5.3284271,15 6,15.671573 6,16.5 z"
       transform="matrix(1.3333333,0,0,1.3333333,6.6250001,1008.3622)" />
    <path
       transform="matrix(1.3333333,0,0,1.3333333,29.1875,1008.3622)"
       d="M 6,16.5 C 6,17.328427 5.3284271,18 4.5,18 3.6715729,18 3,17.328427 3,16.5 3,15.671573 3.6715729,15 4.5,15 5.3284271,15 6,15.671573 6,16.5 z"
       sodipodi:ry="1.5"
       sodipodi:rx="1.5"
       sodipodi:cy="16.5"
       sodipodi:cx="4.5"
       id="path3793"
       style="fill:#ffffff;fill-opacity:1;stroke:#000000;stroke-width:0.75;stroke-opacity:1"
       sodipodi:type="arc" />
    <path
       transform="matrix(1.3333333,0,0,1.3333333,13.375,1000.3622)"
       d="M 6,16.5 C 6,17.328427 5.3284271,18 4.5,18 3.6715729,18 3,17.328427 3,16.5 3,15.671573 3.6715729,15 4.5,15 5.3284271,15 6,15.671573 6,16.5 z"
       sodipodi:ry="1.5"
       sodipodi:rx="1.5"
       sodipodi:cy="16.5"
       sodipodi:cx="4.5"
       id="path3795"
       style="fill:#ffffff;fill-opacity:1;stroke:#000000;stroke-width:0.75;stroke-opacity:1"
       sodipodi:type="arc" />
    <path
       sodipodi:type="arc"
       style="fill:#ffffff;fill-opacity:1;stroke:#000000;stroke-width:0.75;stroke-opacity:1"
       id="path3797"
       sodipodi:cx="4.5"
       sodipodi:cy="16.5"
       sodipodi:rx="1.5"
       sodipodi:ry="1.5"
       d="M 6,16.5 C 6,17.328427 5.3284271,18 4.5,18 3.6715729,18 3,17.328427 3,16.5 3,15.671573 3.6715729,15 4.5,15 5.3284271,15 6,15.671573 6,16.5 z"
       transform="matrix(1.3333333,0,0,1.3333333,22.625,1000.3622)" />
    <path
       transform="matrix(1.3333333,0,0,1.3333333,18,988.3622)"
       d="M 6,16.5 C 6,17.328427 5.3284271,18 4.5,18 3.6715729,18 3,17.328427 3,16.5 3,15.671573 3.6715729,15 4.5,15 5.3284271,15 6,15.671573 6,16.5 z"
       sodipodi:ry="1.5"
       sodipodi:rx="1.5"
       sodipodi:cy="16.5"
       sodipodi:cx="4.5"
       id="path3799"
       style="fill:#ffffff;fill-opacity:1;stroke:#000000;stroke-width:0.75;stroke-opacity:1"
       sodipodi:type="arc" />
    <path
       style="fill:none;stroke:#000000;stroke-width:2;stroke-linecap:round;stroke-linejoin:round;stroke-miterlimit:4;stroke-opacity:1;stroke-dasharray:none"
       d="m 7,5 0,36 35,0"
       id="path3811"
       inkscape:connector-curvature="0"
       transform="translate(0,1004.3622)"
       sodipodi:nodetypes="ccc" />
    <path
       style="fill:none;stroke:#000000;stroke-width:1px;stroke-linecap:round;stroke-linejoin:round;stroke-opacity:1"
       d="M 4,8 7,4 10,8"
       id="path3813"
       inkscape:connector-curvature="0"
       transform="translate(0,1004.3622)" />
    <path
       style="fill:none;stroke:#000000;stroke-width:1px;stroke-linecap:round;stroke-linejoin:round;stroke-opacity:1"
       d="m 39,1042.3622 4,3 -4,3"
       id="path3815"
       inkscape:connector-curvature="0" />
  </g>
</svg>
