<?xml version="1.0" encoding="UTF-8" standalone="no"?>
<!-- Created with Inkscape (http://www.inkscape.org/) -->

<svg
   xmlns:dc="http://purl.org/dc/elements/1.1/"
   xmlns:cc="http://creativecommons.org/ns#"
   xmlns:rdf="http://www.w3.org/1999/02/22-rdf-syntax-ns#"
   xmlns:svg="http://www.w3.org/2000/svg"
   xmlns="http://www.w3.org/2000/svg"
   xmlns:xlink="http://www.w3.org/1999/xlink"
   xmlns:sodipodi="http://sodipodi.sourceforge.net/DTD/sodipodi-0.dtd"
   xmlns:inkscape="http://www.inkscape.org/namespaces/inkscape"
   width="32"
   height="32"
   id="svg2"
   version="1.1"
   inkscape:version="0.48.1 "
   sodipodi:docname="spectrum_32.svg"
   inkscape:export-filename="D:\Dropbox\Spectrum\icons\spectrum_32.png"
   inkscape:export-xdpi="90"
   inkscape:export-ydpi="90">
  <defs
     id="defs4">
    <linearGradient
       id="linearGradient3831">
      <stop
         style="stop-color:#000000;stop-opacity:1;"
         offset="0"
         id="stop3833" />
      <stop
         style="stop-color:#cdcdcd;stop-opacity:1;"
         offset="1"
         id="stop3835" />
    </linearGradient>
    <linearGradient
       id="linearGradient3757">
      <stop
         style="stop-color:#ff2300;stop-opacity:1;"
         offset="0"
         id="stop3759" />
      <stop
         id="stop3765"
         offset="0.25"
         style="stop-color:#ffec00;stop-opacity:1;" />
      <stop
         style="stop-color:#00ff17;stop-opacity:1;"
         offset="0.5"
         id="stop3767" />
      <stop
         id="stop3769"
         offset="0.75"
         style="stop-color:#00c8ff;stop-opacity:1;" />
      <stop
         style="stop-color:#9e2bff;stop-opacity:1;"
         offset="1"
         id="stop3761" />
    </linearGradient>
    <linearGradient
       inkscape:collect="always"
       xlink:href="#linearGradient3757"
       id="linearGradient3809"
       x1="-0.5"
       y1="24"
       x2="48.5"
       y2="24"
       gradientUnits="userSpaceOnUse"
       gradientTransform="matrix(0.66666667,0,0,0.66666667,0,1020.3622)" />
    <linearGradient
       inkscape:collect="always"
       xlink:href="#linearGradient3757"
       id="linearGradient3829"
       gradientUnits="userSpaceOnUse"
       gradientTransform="matrix(0.66666667,0,0,0.69767442,0,1018.8739)"
       x1="-0.5"
       y1="24"
       x2="48.5"
       y2="24" />
  </defs>
  <sodipodi:namedview
     id="base"
     pagecolor="#ffffff"
     bordercolor="#666666"
     borderopacity="1.0"
     inkscape:pageopacity="0.0"
     inkscape:pageshadow="2"
     inkscape:zoom="26.4375"
     inkscape:cx="17.261593"
     inkscape:cy="15.891793"
     inkscape:document-units="px"
     inkscape:current-layer="layer1"
     showgrid="true"
     inkscape:window-width="1920"
     inkscape:window-height="1018"
     inkscape:window-x="-8"
     inkscape:window-y="-8"
     inkscape:window-maximized="1">
    <inkscape:grid
       type="xygrid"
       id="grid2985"
       empspacing="5"
       visible="true"
       enabled="true"
       snapvisiblegridlinesonly="true" />
  </sodipodi:namedview>
  <metadata
     id="metadata7">
    <rdf:RDF>
      <cc:Work
         rdf:about="">
        <dc:format>image/svg+xml</dc:format>
        <dc:type
           rdf:resource="http://purl.org/dc/dcmitype/StillImage" />
        <dc:title></dc:title>
      </cc:Work>
    </rdf:RDF>
  </metadata>
  <g
     inkscape:label="Layer 1"
     inkscape:groupmode="layer"
     id="layer1"
     transform="translate(0,-1020.3622)">
    <rect
       ry="3.3333333"
       y="1020.3622"
       x="0"
       height="32"
       width="32"
       id="rect3015"
       style="fill:#ffffff;fill-opacity:1;stroke:none" />
    <rect
       style="opacity:0.2;fill:url(#linearGradient3809);fill-opacity:1;stroke:none"
       id="rect3801"
       width="32"
       height="32"
       x="0"
       y="1020.3622"
       ry="3.3333333" />
    <path
       style="opacity:0.8;fill:url(#linearGradient3829);fill-opacity:1;stroke:none"
       d="m 16,1022.3622 c -1.333333,10.4651 -9.3333333,18.1396 -16,20.2326 l 0,6.2791 c 0,1.9325 1.4866667,3.4883 3.3333333,3.4883 l 25.3333337,0 c 1.846666,0 3.333333,-1.5558 3.333333,-3.4883 l 0,-6.2791 c -6.666667,-2.093 -14.666667,-9.7675 -16,-20.2326 z"
       id="rect3821"
       inkscape:connector-curvature="0" />
    <path
       style="opacity:0.8;fill:none;stroke:#000000;stroke-width:1px;stroke-linecap:round;stroke-linejoin:miter;stroke-opacity:1"
       d="m 0,1042.3622 c 6.6666667,-1.8621 14.666667,-8.6896 16,-18 1.333333,9.3104 9.333333,16.1379 16,18"
       id="path2987"
       inkscape:connector-curvature="0"
       sodipodi:nodetypes="ccc" />
    <path
       transform="matrix(1.0833333,0,0,1.0833334,11.125,1005.4842)"
       d="m 6,16.5 a 1.5,1.5 0 1 1 -3,0 1.5,1.5 0 1 1 3,0 z"
       sodipodi:ry="1.5"
       sodipodi:rx="1.5"
       sodipodi:cy="16.5"
       sodipodi:cx="4.5"
       id="path3795"
       style="fill:#ffffff;fill-opacity:1;stroke:#000000;stroke-width:0.69230765;stroke-miterlimit:4;stroke-opacity:1;stroke-dasharray:none"
       sodipodi:type="arc" />
    <path
       style="fill:none;stroke:#000000;stroke-width:1;stroke-linecap:round;stroke-linejoin:round;stroke-miterlimit:4;stroke-opacity:1;stroke-dasharray:none"
       d="m 6.5,1025.3622 0,21.5 21.5,0"
       id="path3811"
       inkscape:connector-curvature="0"
       sodipodi:nodetypes="ccc" />
    <path
       style="fill:none;stroke:#000000;stroke-width:0.75;stroke-linecap:round;stroke-linejoin:round;stroke-miterlimit:4;stroke-opacity:1;stroke-dasharray:none"
       d="m 25,1044.3622 4,2.625 -4,2.375"
       id="path3815"
       inkscape:connector-curvature="0"
       sodipodi:nodetypes="ccc" />
    <path
       sodipodi:nodetypes="ccc"
       inkscape:connector-curvature="0"
       id="path4341"
       d="m 3.875,1028.3622 2.625,-4 2.375,4"
       style="fill:none;stroke:#000000;stroke-width:0.75;stroke-linecap:round;stroke-linejoin:round;stroke-miterlimit:4;stroke-opacity:1;stroke-dasharray:none" />
    <path
       sodipodi:type="arc"
       style="fill:#ffffff;fill-opacity:1;stroke:#000000;stroke-width:0.69230765;stroke-miterlimit:4;stroke-opacity:1;stroke-dasharray:none"
       id="path4343"
       sodipodi:cx="4.5"
       sodipodi:cy="16.5"
       sodipodi:rx="1.5"
       sodipodi:ry="1.5"
       d="m 6,16.5 a 1.5,1.5 0 1 1 -3,0 1.5,1.5 0 1 1 3,0 z"
       transform="matrix(1.0833333,0,0,1.0833334,16.125,1016.4872)" />
    <path
       transform="matrix(1.0833333,0,0,1.0833334,6.1250001,1016.4872)"
       d="m 6,16.5 a 1.5,1.5 0 1 1 -3,0 1.5,1.5 0 1 1 3,0 z"
       sodipodi:ry="1.5"
       sodipodi:rx="1.5"
       sodipodi:cy="16.5"
       sodipodi:cx="4.5"
       id="path4345"
       style="fill:#ffffff;fill-opacity:1;stroke:#000000;stroke-width:0.69230765;stroke-miterlimit:4;stroke-opacity:1;stroke-dasharray:none"
       sodipodi:type="arc" />
    <path
       sodipodi:type="arc"
       style="fill:#ffffff;fill-opacity:1;stroke:#000000;stroke-width:0.69230765;stroke-miterlimit:4;stroke-opacity:1;stroke-dasharray:none"
       id="path4358"
       sodipodi:cx="4.5"
       sodipodi:cy="16.5"
       sodipodi:rx="1.5"
       sodipodi:ry="1.5"
       d="m 6,16.5 a 1.5,1.5 0 1 1 -3,0 1.5,1.5 0 1 1 3,0 z"
       transform="matrix(1.0833333,0,0,1.0833334,-2.8749999,1023.4872)" />
    <path
       transform="matrix(1.0833333,0,0,1.0833334,25.125,1023.4872)"
       d="m 6,16.5 a 1.5,1.5 0 1 1 -3,0 1.5,1.5 0 1 1 3,0 z"
       sodipodi:ry="1.5"
       sodipodi:rx="1.5"
       sodipodi:cy="16.5"
       sodipodi:cx="4.5"
       id="path4360"
       style="fill:#ffffff;fill-opacity:1;stroke:#000000;stroke-width:0.69230765;stroke-miterlimit:4;stroke-opacity:1;stroke-dasharray:none"
       sodipodi:type="arc" />
  </g>
</svg>
