<?xml version="1.0" encoding="UTF-8" standalone="no"?>
<!-- Created with Inkscape (http://www.inkscape.org/) -->

<svg
   width="400"
   height="660"
   viewBox="0 0 105.83333 174.625"
   version="1.1"
   id="svg1"
   inkscape:version="1.3 (0e150ed6c4, 2023-07-21)"
   sodipodi:docname="offset.svg"
   inkscape:export-filename="..\..\bin\help\images\scale.png"
   inkscape:export-xdpi="96"
   inkscape:export-ydpi="96"
   xmlns:inkscape="http://www.inkscape.org/namespaces/inkscape"
   xmlns:sodipodi="http://sodipodi.sourceforge.net/DTD/sodipodi-0.dtd"
   xmlns="http://www.w3.org/2000/svg"
   xmlns:svg="http://www.w3.org/2000/svg">
  <sodipodi:namedview
     id="namedview1"
     pagecolor="#ffffff"
     bordercolor="#000000"
     borderopacity="0.25"
     inkscape:showpageshadow="2"
     inkscape:pageopacity="0.0"
     inkscape:pagecheckerboard="0"
     inkscape:deskcolor="#d1d1d1"
     inkscape:document-units="mm"
     showgrid="true"
     inkscape:zoom="3.2498316"
     inkscape:cx="290.47659"
     inkscape:cy="454.79279"
     inkscape:window-width="2880"
     inkscape:window-height="1694"
     inkscape:window-x="5749"
     inkscape:window-y="676"
     inkscape:window-maximized="1"
     inkscape:current-layer="layer1">
    <inkscape:grid
       id="grid1"
       units="px"
       originx="0"
       originy="0"
       spacingx="0.26458333"
       spacingy="0.26458333"
       empcolor="#0099e5"
       empopacity="0.30196078"
       color="#0099e5"
       opacity="0.14901961"
       empspacing="5"
       dotted="false"
       gridanglex="30"
       gridanglez="30"
       visible="true" />
  </sodipodi:namedview>
  <defs
     id="defs1">
    <marker
       style="overflow:visible"
       id="RoundedArrow"
       refX="0"
       refY="0"
       orient="auto-start-reverse"
       inkscape:stockid="Rounded arrow"
       markerWidth="1"
       markerHeight="1"
       viewBox="0 0 1 1"
       inkscape:isstock="true"
       inkscape:collect="always"
       preserveAspectRatio="xMidYMid">
      <path
         transform="scale(0.7)"
         d="m -0.21114562,-4.1055728 6.42229122,3.21114561 a 1,1 90 0 1 0,1.78885438 L -0.21114562,4.1055728 A 1.236068,1.236068 31.717474 0 1 -2,3 v -6 a 1.236068,1.236068 148.28253 0 1 1.78885438,-1.1055728 z"
         style="fill:context-stroke;fill-rule:evenodd;stroke:none"
         id="path17" />
    </marker>
  </defs>
  <g
     inkscape:label="Layer 1"
     inkscape:groupmode="layer"
     id="layer1">
    <rect
       style="fill:#fafafa;fill-opacity:1;stroke:none;stroke-width:0.132292;stroke-dasharray:none;stroke-dashoffset:0;stroke-opacity:1"
       id="rect15"
       width="105.83333"
       height="60.854168"
       x="0"
       y="87.3125"
       inkscape:export-filename="..\..\bin\help\images\offset_2.png"
       inkscape:export-xdpi="96"
       inkscape:export-ydpi="96" />
    <rect
       style="fill:#fafafa;fill-opacity:0;stroke:none;stroke-width:0.132292;stroke-dasharray:none;stroke-dashoffset:0;stroke-opacity:1"
       id="rect16"
       width="105.83333"
       height="5.291666"
       x="0"
       y="148.16667" />
    <rect
       style="fill:#fafafa;fill-opacity:1;stroke:none;stroke-width:0.132292;stroke-dasharray:none;stroke-dashoffset:0;stroke-opacity:1"
       id="rect13"
       width="105.83333"
       height="60.854164"
       x="0"
       y="0"
       inkscape:export-filename="..\..\bin\help\images\offset_1.png"
       inkscape:export-xdpi="96"
       inkscape:export-ydpi="96" />
    <path
       style="fill:none;stroke:#000000;stroke-width:0.264583;stroke-dasharray:none;stroke-dashoffset:0;stroke-opacity:0.725768;marker-end:url(#RoundedArrow)"
       d="M 1.3229167,41.936457 H 103.1875"
       id="path3"
       sodipodi:nodetypes="cc" />
    <path
       style="fill:none;stroke:#6691e4;stroke-width:0.529167;stroke-dasharray:none;stroke-opacity:1"
       d="m 1.3229156,33.753272 2.645833,3.401785 2.6458327,1.133929 2.645834,-2.267857 2.6458327,-3.779762 2.645833,1.889881 2.645833,0.377976 2.645834,2.267857 2.645833,-1.889881 2.645833,-0.377976 1.322917,-1.511904 2.645833,-0.377976 2.645834,-1.133929 h 2.645833 l 2.645831,2.267857 3.96875,4.535714 2.645833,-0.755952 2.645833,1.88988 h 2.645833 l 2.645834,2.267857 2.645833,-0.755952 2.645833,3.401785 2.645834,0.755953 2.645833,3.023809 h 2.645833 l 2.645834,3.023808 2.645833,-1.133928 2.645833,2.645833 h 2.645834 l 2.645837,-2.267856 h 2.645833 l 2.645833,-1.133929 2.645834,-3.023809 2.645833,1.133928 2.645833,-1.88988 2.645833,-0.755953 2.645834,-1.88988 h 2.645833 l 1.322912,-2.645834 2.64584,-0.377975"
       id="path4"
       sodipodi:nodetypes="cccccccccccccccccccccccccccccccccccccccc" />
    <path
       style="fill:#000000;fill-opacity:0.25;stroke:none;stroke-width:0.264583;stroke-dasharray:1.05833, 0.529167, 0.264583, 0.529167;stroke-dashoffset:0;stroke-opacity:1"
       d="m 31.220828,26.458327 h -1.322916 l 2.645833,2.645833 2.645833,-2.645833 H 33.866662 V 13.229162 h -2.645834 z"
       id="path6"
       sodipodi:nodetypes="cccccccc" />
    <path
       style="fill:#000000;fill-opacity:0.25098;stroke:none;stroke-width:0.264583;stroke-dasharray:1.05833, 0.529167, 0.264583, 0.529167;stroke-dashoffset:0;stroke-opacity:1"
       d="m 74.714296,119.85611 v -1.32291 l 2.64584,2.64583 -2.64584,2.64583 v -1.32291 h -34.925 v -2.64584 z"
       id="path10"
       sodipodi:nodetypes="cccccccc" />
    <rect
       style="fill:#fafafa;fill-opacity:0;stroke:none;stroke-width:0.132292;stroke-dasharray:none;stroke-dashoffset:0;stroke-opacity:1"
       id="rect14"
       width="105.83333"
       height="5.291666"
       x="0"
       y="60.854168" />
    <path
       style="fill:none;stroke:#f15e5e;stroke-width:0.529167;stroke-dasharray:none;stroke-opacity:1"
       d="m 1.3229156,12.586604 2.645833,3.401785 2.6458327,1.133929 2.645834,-2.267857 2.6458327,-3.779762 2.645833,1.889881 2.645833,0.377976 2.645834,2.267857 2.645833,-1.889881 2.645833,-0.377976 1.322917,-1.511904 2.645833,-0.377976 2.645834,-1.133929 h 2.645833 l 2.645831,2.267857 3.96875,4.535714 2.645833,-0.755952 2.645833,1.88988 h 2.645833 l 2.645834,2.267857 2.645833,-0.755952 2.645833,3.401785 2.645834,0.755953 2.645833,3.023809 h 2.645833 l 2.645834,3.023808 2.645833,-1.133928 2.645833,2.645833 h 2.645834 l 2.645837,-2.267856 h 2.645833 l 2.645833,-1.133929 2.645834,-3.023809 2.645833,1.133928 2.645833,-1.88988 2.645833,-0.755953 2.645834,-1.88988 h 2.645833 l 1.322912,-2.645834 2.64584,-0.377975"
       id="path16"
       sodipodi:nodetypes="cccccccccccccccccccccccccccccccccccccccc" />
    <path
       style="fill:none;stroke:#000000;stroke-width:0.264583;stroke-dasharray:none;stroke-dashoffset:0;stroke-opacity:0.725768;marker-end:url(#RoundedArrow)"
       d="M 5.2565487,56.982616 V 3.8013661"
       id="path18"
       sodipodi:nodetypes="cc" />
    <path
       style="fill:none;stroke:#000000;stroke-width:0.264583;stroke-dasharray:none;stroke-dashoffset:0;stroke-opacity:0.725768;marker-end:url(#RoundedArrow)"
       d="M 1.3229167,131.89481 H 103.1875"
       id="path19"
       sodipodi:nodetypes="cc" />
    <path
       style="fill:none;stroke:#000000;stroke-width:0.264583;stroke-dasharray:none;stroke-dashoffset:0;stroke-opacity:0.725768;marker-end:url(#RoundedArrow)"
       d="M 52.881551,146.94098 V 91.113871"
       id="path20"
       sodipodi:nodetypes="cc" />
    <path
       style="fill:none;stroke:#6691e4;stroke-width:0.529167;stroke-dasharray:none;stroke-opacity:1"
       d="m 52.859276,96.837493 1.287168,8.334377 1.287167,2.77813 1.287167,-5.55625 1.287167,-9.260424 1.287168,4.630207 1.287167,0.92605 1.287168,5.556247 1.287167,-4.630207 1.287167,-0.92604 0.643584,-3.70417 1.287167,-0.926047 1.287168,-2.77812 h 1.287167 l 1.287166,5.556247 1.930751,11.112507 1.287167,-1.85208 1.287167,4.63021 h 1.287167 l 1.287167,5.55626 1.287168,-1.85209 1.287167,8.33438 1.287167,1.85209 1.287167,7.40834 h 1.287167 l 1.287168,7.40834 1.287167,-2.77813 1.287167,6.4823 h 1.287167 l 1.287169,-5.55625 h 1.287168 l 1.287167,-2.77813 1.287167,-7.40834 1.287167,2.77813 1.287167,-4.63022 1.287167,-1.85208 1.287168,-4.63022 h 1.287162 l 0.64359,-6.4823"
       id="path21"
       sodipodi:nodetypes="ccccccccccccccccccccccccccccccccccccccc"
       inkscape:export-filename="..\..\bin\help\images\modify_offset_2.png"
       inkscape:export-xdpi="96"
       inkscape:export-ydpi="96" />
    <path
       style="fill:none;stroke:#f15e5e;stroke-width:0.529167;stroke-dasharray:none;stroke-opacity:1"
       d="m 10.52594,96.837493 1.287168,8.334377 1.287167,2.77813 1.287167,-5.55625 1.287167,-9.260424 1.287168,4.630207 1.287167,0.92605 1.287168,5.556247 1.287167,-4.630207 1.287167,-0.92604 0.643584,-3.70417 1.287167,-0.926047 1.287168,-2.77812 h 1.287167 l 1.287166,5.556247 1.930751,11.112507 1.287167,-1.85208 1.287167,4.63021 h 1.287167 l 1.287167,5.55626 1.287168,-1.85209 1.287167,8.33438 1.287167,1.85209 1.287167,7.40834 h 1.287167 l 1.287168,7.40834 1.287167,-2.77813 1.287167,6.4823 h 1.287167 l 1.287169,-5.55625 h 1.287168 l 1.287167,-2.77813 1.287167,-7.40834 1.287167,2.77813 1.287167,-4.63022 1.287167,-1.85208 1.287168,-4.63022 h 1.287162 l 0.64359,-6.4823"
       id="path22"
       sodipodi:nodetypes="ccccccccccccccccccccccccccccccccccccccc"
       inkscape:export-filename="..\..\bin\help\images\modify_offset_2.png"
       inkscape:export-xdpi="96"
       inkscape:export-ydpi="96" />
  </g>
</svg>
