<?xml version="1.0" encoding="UTF-8" standalone="no"?>
<!-- Created with Inkscape (http://www.inkscape.org/) -->

<svg
   width="400"
   height="660"
   viewBox="0 0 105.83333 174.625"
   version="1.1"
   id="svg1"
   inkscape:version="1.3 (0e150ed6c4, 2023-07-21)"
   sodipodi:docname="scale.svg"
   inkscape:export-filename="..\..\bin\help\images\scale.png"
   inkscape:export-xdpi="96"
   inkscape:export-ydpi="96"
   xmlns:inkscape="http://www.inkscape.org/namespaces/inkscape"
   xmlns:sodipodi="http://sodipodi.sourceforge.net/DTD/sodipodi-0.dtd"
   xmlns="http://www.w3.org/2000/svg"
   xmlns:svg="http://www.w3.org/2000/svg">
  <sodipodi:namedview
     id="namedview1"
     pagecolor="#ffffff"
     bordercolor="#000000"
     borderopacity="0.25"
     inkscape:showpageshadow="2"
     inkscape:pageopacity="0.0"
     inkscape:pagecheckerboard="0"
     inkscape:deskcolor="#d1d1d1"
     inkscape:document-units="mm"
     showgrid="true"
     inkscape:zoom="3.2498316"
     inkscape:cx="253.5516"
     inkscape:cy="462.17779"
     inkscape:window-width="2880"
     inkscape:window-height="1694"
     inkscape:window-x="5749"
     inkscape:window-y="676"
     inkscape:window-maximized="1"
     inkscape:current-layer="layer1">
    <inkscape:grid
       id="grid1"
       units="px"
       originx="0"
       originy="0"
       spacingx="0.26458333"
       spacingy="0.26458333"
       empcolor="#0099e5"
       empopacity="0.30196078"
       color="#0099e5"
       opacity="0.14901961"
       empspacing="5"
       dotted="false"
       gridanglex="30"
       gridanglez="30"
       visible="true" />
  </sodipodi:namedview>
  <defs
     id="defs1" />
  <g
     inkscape:label="Layer 1"
     inkscape:groupmode="layer"
     id="layer1">
    <rect
       style="fill:#fafafa;fill-opacity:1;stroke:none;stroke-width:0.132292;stroke-dasharray:none;stroke-dashoffset:0;stroke-opacity:1"
       id="rect15"
       width="105.83333"
       height="82.020836"
       x="0"
       y="87.3125"
       inkscape:export-filename="..\..\bin\help\images\scale_2.png"
       inkscape:export-xdpi="96"
       inkscape:export-ydpi="96" />
    <rect
       style="fill:#fafafa;fill-opacity:0;stroke:none;stroke-width:0.132292;stroke-dasharray:none;stroke-dashoffset:0;stroke-opacity:1"
       id="rect16"
       width="105.83333"
       height="5.291666"
       x="0"
       y="169.33333" />
    <rect
       style="fill:#fafafa;fill-opacity:1;stroke:none;stroke-width:0.132292;stroke-dasharray:none;stroke-dashoffset:0;stroke-opacity:1"
       id="rect13"
       width="105.83333"
       height="82.020836"
       x="0"
       y="0"
       inkscape:export-filename="..\..\bin\help\images\scale_1.png"
       inkscape:export-xdpi="96"
       inkscape:export-ydpi="96" />
    <path
       style="fill:none;stroke:#6691e4;stroke-width:0.529167;stroke-dasharray:none;stroke-opacity:1"
       d="m 1.3229156,12.964582 2.645833,11.90625 2.6458327,3.96875 2.645834,-7.9375 2.6458327,-13.2291654 2.645833,6.6145824 2.645833,1.322917 2.645834,7.937499 2.645833,-6.614583 2.645833,-1.322916 1.322917,-5.291667 2.645833,-1.3229164 2.645834,-3.9687494 h 2.645833 l 2.645831,7.9374988 3.96875,15.875 2.645833,-2.645833 2.645833,6.614583 h 2.645833 l 2.645834,7.9375 2.645833,-2.645833 2.645833,11.90625 2.645834,2.645833 2.645833,10.583333 h 2.645833 l 2.645834,10.583331 2.645833,-3.96875 2.645833,9.260416 h 2.645834 l 2.645837,-7.937497 h 2.645833 l 2.645833,-3.96875 2.645834,-10.583333 2.645833,3.968749 2.645833,-6.614583 2.645833,-2.645833 2.645834,-6.614583 h 2.645833 l 1.322912,-9.260417 2.64584,-1.322916"
       id="path1"
       sodipodi:nodetypes="cccccccccccccccccccccccccccccccccccccccc"
       inkscape:export-filename="..\..\bin\help\images\scale_1.png"
       inkscape:export-xdpi="96"
       inkscape:export-ydpi="96" />
    <path
       style="fill:none;stroke:#000000;stroke-width:0.264583;stroke-dasharray:2.11667, 0.529167, 0.264583, 0.529167;stroke-dashoffset:0;stroke-opacity:0.725768"
       d="M 1.3229167,41.936457 H 103.1875"
       id="path3"
       sodipodi:nodetypes="cc" />
    <path
       style="fill:none;stroke:#f15e5e;stroke-width:0.529167;stroke-dasharray:none;stroke-opacity:1"
       d="m 1.3229156,33.753272 2.645833,3.401785 2.6458327,1.133929 2.645834,-2.267857 2.6458327,-3.779762 2.645833,1.889881 2.645833,0.377976 2.645834,2.267857 2.645833,-1.889881 2.645833,-0.377976 1.322917,-1.511904 2.645833,-0.377976 2.645834,-1.133929 h 2.645833 l 2.645831,2.267857 3.96875,4.535714 2.645833,-0.755952 2.645833,1.88988 h 2.645833 l 2.645834,2.267857 2.645833,-0.755952 2.645833,3.401785 2.645834,0.755953 2.645833,3.023809 h 2.645833 l 2.645834,3.023808 2.645833,-1.133928 2.645833,2.645833 h 2.645834 l 2.645837,-2.267856 h 2.645833 l 2.645833,-1.133929 2.645834,-3.023809 2.645833,1.133928 2.645833,-1.88988 2.645833,-0.755953 2.645834,-1.88988 h 2.645833 l 1.322912,-2.645834 2.64584,-0.377975"
       id="path4"
       sodipodi:nodetypes="cccccccccccccccccccccccccccccccccccccccc" />
    <path
       style="fill:#000000;fill-opacity:0.25098;stroke:none;stroke-width:0.264583;stroke-dasharray:1.05833, 0.529167, 0.264583, 0.529167;stroke-dashoffset:0;stroke-opacity:1"
       d="m 72.49583,67.204165 h -1.322916 l 2.645833,2.645833 2.645833,-2.645833 H 75.141664 V 53.975 H 72.49583 Z"
       id="path5"
       sodipodi:nodetypes="cccccccc" />
    <path
       style="fill:#000000;fill-opacity:0.25;stroke:none;stroke-width:0.264583;stroke-dasharray:1.05833, 0.529167, 0.264583, 0.529167;stroke-dashoffset:0;stroke-opacity:1"
       d="m 31.220828,15.874995 h -1.322916 l 2.645833,-2.645833 2.645833,2.645833 H 33.866662 V 29.10416 h -2.645834 z"
       id="path6"
       sodipodi:nodetypes="cccccccc" />
    <path
       style="fill:none;stroke:#f15e5e;stroke-width:0.529167;stroke-dasharray:none;stroke-opacity:1"
       d="m 3.9687491,98.689588 2.645833,11.906252 2.6458327,3.96875 2.6458352,-7.93749 2.645833,-13.229179 2.645833,6.614579 2.645833,1.32293 2.645834,7.9375 2.645833,-6.61459 2.645833,-1.32291 1.322917,-5.291675 2.645833,-1.322917 2.645834,-3.96875 h 2.645833 l 2.645831,7.9375 3.96875,15.875002 2.645833,-2.64583 2.645833,6.61458 h 2.645833 l 2.645834,7.93751 2.645833,-2.64584 2.645833,11.90626 2.645834,2.64584 2.645833,10.58333 h 2.645833 l 2.645834,10.58334 2.645833,-3.96875 2.645833,9.26042 h 2.645834 l 2.645837,-7.9375 h 2.645833 l 2.645833,-3.96875 2.645834,-10.58334 2.645833,3.96875 2.645833,-6.61459 2.645833,-2.64583 2.645834,-6.61459 h 2.64584 l 1.32292,-9.26042"
       id="path7"
       sodipodi:nodetypes="ccccccccccccccccccccccccccccccccccccccc"
       inkscape:export-filename="..\..\bin\help\images\scale_2.png"
       inkscape:export-xdpi="96"
       inkscape:export-ydpi="96" />
    <path
       style="fill:none;stroke:#000000;stroke-width:0.264583;stroke-dasharray:2.11667, 0.529167, 0.264583, 0.529167;stroke-dashoffset:0;stroke-opacity:0.72549"
       d="M 3.5718724,164.83543 V 89.429172"
       id="path8"
       sodipodi:nodetypes="cc" />
    <path
       style="fill:#000000;fill-opacity:0.25098;stroke:none;stroke-width:0.264583;stroke-dasharray:1.05833, 0.529167, 0.264583, 0.529167;stroke-dashoffset:0;stroke-opacity:1"
       d="m 50.372641,146.31461 v -1.32291 l -2.64584,2.64583 2.64584,2.64583 v -1.32291 h 34.925 v -2.64584 z"
       id="path10"
       sodipodi:nodetypes="cccccccc" />
    <path
       style="fill:none;stroke:#6691e4;stroke-width:0.529167;stroke-dasharray:none;stroke-opacity:1"
       d="m 3.6467701,98.689588 1.287167,11.906252 1.287167,3.96875 1.2871677,-7.93749 1.287167,-13.229179 1.2871672,6.614579 1.287167,1.32293 1.287168,7.9375 1.287167,-6.61459 1.287167,-1.32291 0.643584,-5.291675 1.287167,-1.322917 1.287168,-3.96875 h 1.287167 l 1.287166,7.9375 1.930751,15.875002 1.287167,-2.64583 1.287167,6.61458 h 1.287167 l 1.287167,7.93751 1.287168,-2.64584 1.287167,11.90626 1.287167,2.64584 1.287167,10.58333 h 1.287167 l 1.287168,10.58334 1.287167,-3.96875 1.287167,9.26042 h 1.287167 l 1.287169,-7.9375 h 1.287168 l 1.287167,-3.96875 1.287167,-10.58334 1.287167,3.96875 1.287167,-6.61459 1.287167,-2.64583 1.287168,-6.61459 h 1.287167 l 0.643581,-9.26042"
       id="path12"
       sodipodi:nodetypes="ccccccccccccccccccccccccccccccccccccccc"
       inkscape:export-filename="..\..\bin\help\images\modify_offset_2.png"
       inkscape:export-xdpi="96"
       inkscape:export-ydpi="96" />
    <rect
       style="fill:#fafafa;fill-opacity:0;stroke:none;stroke-width:0.132292;stroke-dasharray:none;stroke-dashoffset:0;stroke-opacity:1"
       id="rect14"
       width="105.83333"
       height="5.291666"
       x="0"
       y="82.020821" />
  </g>
</svg>
