<svg height="24" width="24" xmlns="http://www.w3.org/2000/svg" xmlns:xlink="http://www.w3.org/1999/xlink">
<linearGradient id="a">
<stop offset="0" stop-color="#87714d"/>
<stop offset="1" stop-color="#c69c59"/>
</linearGradient>
<linearGradient id="b" gradientTransform="matrix(.76 0 0 .9 2.44 -1.29)" gradientUnits="userSpaceOnUse" x1="4" x2="20" y1="3" y2="22">
<stop offset="0" stop-color="#92b1de"/>
<stop offset="1" stop-color="#525f96"/>
</linearGradient>
<linearGradient id="c" gradientTransform="matrix(.76 0 0 .9 2.44 -1.29)" gradientUnits="userSpaceOnUse" x1="5" x2="20" y1="3" y2="21">
<stop offset="0" stop-color="#fdffff"/>
<stop offset="1" stop-color="#b2d3fa"/>
</linearGradient>
<linearGradient id="d">
<stop offset="0" stop-color="#f3c668"/>
<stop offset="1" stop-color="#f9f398"/>
</linearGradient>
<linearGradient id="e" gradientUnits="userSpaceOnUse" x1="1" x2="16" xlink:href="#a" y1="17" y2="7"/>
<linearGradient id="f" gradientUnits="userSpaceOnUse" x1="3" x2="10" xlink:href="#d" y1="13" y2="8"/>
<linearGradient id="g" gradientUnits="userSpaceOnUse" x1="6" x2="17" xlink:href="#d" y1="13" y2="20"/>
<linearGradient id="h" gradientUnits="userSpaceOnUse" x1="3" x2="21" xlink:href="#a" y1="20" y2="11"/>
<linearGradient id="i" gradientUnits="userSpaceOnUse" x1="12" x2="22" y1="12" y2="23">
<stop offset="0" stop-color="#a1de92"/>
<stop offset="1" stop-color="#5f9652"/>
</linearGradient>
<linearGradient id="j" gradientUnits="userSpaceOnUse" x1="11" x2="24" y1="10" y2="24">
<stop offset="0" stop-color="#50b938"/>
<stop offset="1" stop-color="#2f4b29"/>
</linearGradient>
<g fill-rule="evenodd" stroke-linejoin="round">
<path d="m.5 21.5v-14.5l2.5-4.5h7l1 3h7v16z" fill="url(#f)" stroke="url(#e)"/>
<path d="m5.5.51h14v10.99h-14z" fill="url(#c)" stroke="url(#b)" stroke-dashoffset="21.44" stroke-linecap="round"/>
<path d="m.6 21.5h17.4l5-13h-13l-1 3h-4z" fill="url(#g)" stroke="url(#h)"/>
</g>
<path d="m15.49 11.5.03 4h-4.01l-.03 4h4v4h4v-4h4.01l.03-4h-4l-.03-4z" fill="url(#i)" stroke="url(#j)"/>
<g fill="none">
<path d="m7.05 5.2 2-3 2 5 1-3 2 2 2-4 2 3" stroke="#f15e5e" stroke-linecap="round" stroke-linejoin="round"/>
<path d="m14.5 20.5h-4v-6h4v-4h6v4" stroke="#fff" stroke-linecap="square" stroke-opacity=".63"/>
</g>
</svg>
