<svg height="24" width="24" xmlns="http://www.w3.org/2000/svg" xmlns:xlink="http://www.w3.org/1999/xlink">
<linearGradient id="a">
<stop offset="0" stop-color="#87714d"/>
<stop offset="1" stop-color="#c69c59"/>
</linearGradient>
<linearGradient id="b" gradientUnits="userSpaceOnUse" x1="6.5" x2="28.79" y1="7.25" y2="7.25">
<stop offset="0" stop-color="#818eaf"/>
<stop offset="1" stop-color="#818eaf" stop-opacity="0"/>
</linearGradient>
<linearGradient id="c" gradientTransform="matrix(.76 0 0 .9 2.44 -1.29)" gradientUnits="userSpaceOnUse" x1="4" x2="20" y1="3" y2="22">
<stop offset="0" stop-color="#92b1de"/>
<stop offset="1" stop-color="#525f96"/>
</linearGradient>
<linearGradient id="d" gradientTransform="matrix(.76 0 0 .9 2.44 -1.29)" gradientUnits="userSpaceOnUse" x1="5" x2="20" y1="3" y2="21">
<stop offset="0" stop-color="#fdffff"/>
<stop offset="1" stop-color="#b2d3fa"/>
</linearGradient>
<linearGradient id="e">
<stop offset="0" stop-color="#f3c668"/>
<stop offset="1" stop-color="#f9f398"/>
</linearGradient>
<linearGradient id="f" gradientUnits="userSpaceOnUse" x1="1" x2="16" xlink:href="#a" y1="17" y2="7"/>
<linearGradient id="g" gradientUnits="userSpaceOnUse" x1="3" x2="10" xlink:href="#e" y1="13" y2="8"/>
<linearGradient id="h" gradientUnits="userSpaceOnUse" x1="6" x2="17" xlink:href="#e" y1="13" y2="20"/>
<linearGradient id="i" gradientUnits="userSpaceOnUse" x1="3" x2="21" xlink:href="#a" y1="20" y2="11"/>
<linearGradient id="j" gradientUnits="userSpaceOnUse" x1="12" x2="22" y1="12" y2="23">
<stop offset="0" stop-color="#a1de92"/>
<stop offset="1" stop-color="#5f9652"/>
</linearGradient>
<linearGradient id="k" gradientUnits="userSpaceOnUse" x1="11" x2="24" y1="10" y2="24">
<stop offset="0" stop-color="#50b938"/>
<stop offset="1" stop-color="#2f4b29"/>
</linearGradient>
<path d="m.5 21.5v-14.5l2.5-4.5h7l1 3h7v16z" fill="url(#g)" fill-rule="evenodd" stroke="url(#f)" stroke-linejoin="round"/>
<path d="m5.5.51h16v10.99h-16z" style="fill-rule:evenodd;stroke-linecap:round;stroke-linejoin:round;stroke-dashoffset:21.44;fill:url(#d);stroke:url(#c)"/>
<path d="m19.5 12v-9.56m-4 .56v9m-4-9v9m-4-9v9m-.5-9.5h13m-13 3h12m-12 3h12m-12 3h12" fill="none" stroke="url(#b)"/>
<path d="m.6 21.5h17.4l5-13h-13l-1 3h-4z" fill="url(#h)" fill-rule="evenodd" stroke="url(#i)" stroke-linejoin="round"/>
<path d="m15.49 11.5.03 4h-4.01l-.03 4h4v4h4v-4h4.01l.03-4h-4l-.03-4z" fill="url(#j)" stroke="url(#k)"/>
<path d="m14.5 20.5h-4v-6h4v-4h6v4" fill="none" stroke="#fff" stroke-linecap="square" stroke-opacity=".63"/>
</svg>
