<svg height="24" width="24" xmlns="http://www.w3.org/2000/svg" xmlns:xlink="http://www.w3.org/1999/xlink">
<linearGradient id="a">
<stop offset="0" stop-color="#dddde6"/>
<stop offset="1" stop-color="#989faf"/>
</linearGradient>
<linearGradient id="b" gradientTransform="matrix(.26 .97 -.97 .26 28.57 -3.42)" gradientUnits="userSpaceOnUse" x1="5.09" x2="9.85" xlink:href="#a" y1="14.65" y2="17.94"/>
<linearGradient id="c" gradientUnits="userSpaceOnUse" x1="7.8" x2="12.84" xlink:href="#a" y1="11.85" y2="18.94"/>
<linearGradient id="d" gradientUnits="userSpaceOnUse" x1="12.02" x2="22.02" y1="12" y2="23">
<stop offset="0" stop-color="#a1de92"/>
<stop offset="1" stop-color="#5f9652"/>
</linearGradient>
<linearGradient id="e" gradientUnits="userSpaceOnUse" x1="11.02" x2="24.02" y1="10" y2="24">
<stop offset="0" stop-color="#50b938"/>
<stop offset="1" stop-color="#2f4b29"/>
</linearGradient>
<g stroke="#545f88" transform="matrix(.97 -.23 .23 .97 -.2 3.19)">
<path d="m22.94 6.08-1.37 4.9c-.13.43-.28.86-.88 1.55l-3.83 4.17c-.43.5-.88.54-1.34.37l-6.23-3.5c-.84-.56-.74-1.06-.78-1.58l.78-5.64c.14-.89.52-1.3.93-1.65l4.51-3.46c.4-.39 1.21-.37 1.64-.11l6.04 3.76c.43.26.63.65.53 1.19z" fill="url(#b)" fill-rule="evenodd"/>
<g fill="none" stroke-width=".7">
<path d="m22.59 5.49-3.96 3.69c-.54.52-1.07 1.06-1.2 2.14l-1.33 5.73"/>
<path d="m9.76 5.42 6.62 4.09c1.15.73 1.44.33 1.97 0"/>
</g>
</g>
<path d="m20.59 20.83c-.27.28-.58.53-.98.53-.83 0-1.5-.71-1.5-1.58 0-.86.5-1.56 1.32-1.56 0 0 1.16 2.61 1.16 2.61z" fill-opacity=".24" fill-rule="evenodd" transform="matrix(4.45 .61 -3.12 .84 -16.36 -6.15)"/>
<g stroke="#545f88" transform="translate(-.29 .02)">
<path d="m7.72 7.9 4.37 2.58c.38.24.77.5 1.27 1.26l3.04 4.78c.38.54.3.98.01 1.39l-4.99 5.11c-.76.67-1.22.44-1.72.34l-5.26-2.22c-.82-.35-1.11-.83-1.35-1.31l-2.17-5.26c-.28-.49-.05-1.26.31-1.61l5.2-4.86c.36-.35.79-.44 1.29-.2z" fill="url(#c)" fill-rule="evenodd"/>
<g fill="none" stroke-width=".7">
<path d="m7.06 8.08 2.54 4.78c.36.66.74 1.31 1.75 1.71l5.19 2.77"/>
<path d="m3.67 20.46 6.48-6.56"/>
</g>
</g>
<g fill-opacity=".55" fill-rule="evenodd">
<path d="m21.11 19.78a1.5 1.57 0 1 1 -3 0 1.5 1.57 0 1 1 3 0z" transform="matrix(-.03 .81 -.86 .33 20.89 -8.61)"/>
<path d="m21.11 19.78a1.5 1.57 0 1 1 -3 0 1.5 1.57 0 1 1 3 0z" transform="matrix(-.05 .81 -.86 .33 24.68 -8.49)"/>
<path d="m21.11 19.78a1.5 1.57 0 1 1 -3 0 1.5 1.57 0 1 1 3 0z" transform="matrix(-.09 .82 -.85 .11 33.42 -13.37)"/>
<path d="m21.11 19.78a1.5 1.57 0 1 1 -3 0 1.5 1.57 0 1 1 3 0z" transform="matrix(-.09 .82 -.85 .11 37.74 -13.67)"/>
<path d="m21.11 19.78a1.5 1.57 0 1 1 -3 0 1.5 1.57 0 1 1 3 0z" transform="matrix(-.05 .81 -.86 .33 28.07 -3.65)"/>
</g>
<path d="m15.5 11.5.03 4h-4l-.03 4h4v4h4v-4h4l.03-4h-4l-.03-4z" fill="url(#d)" stroke="url(#e)"/>
<path d="m14.5 20.5h-4v-6h4v-4h6v4" fill="none" stroke="#fff" stroke-linecap="square" stroke-opacity=".63"/>
</svg>
