<svg height="24" width="24" xmlns="http://www.w3.org/2000/svg">
<path d="m2.5 24v-23" fill="none" stroke="#6b7c98"/>
<path d="m.5 3 2-3 2 3" fill="#6b7c98" fill-rule="evenodd"/>
<path d="m0 21.5h23" fill="none" stroke="#6b7c98"/>
<path d="m21 19.5 3 2-3 2" fill="#6b7c98" fill-rule="evenodd"/>
<path d="m7.55 11.94 1.55-1.46c.54-.52 1.37.28.83.8l-1.55 1.46 1.55 1.46c.54.53-.28 1.33-.83.8l-1.55-1.46-1.54 1.46c-.55.53-1.38-.27-.83-.8l1.55-1.46-1.55-1.46c-.55-.52.28-1.32.83-.8zm5.78 4.07h-2v-8.1l-1.07.78c-.55.53-1.38-.27-.83-.8l2.89-2.71c.27-.26 1.01-.27 1.01.4zm8.67-3.44c0 1.92-.76 3.43-2.76 3.43h-1.19c-1.98 0-3.05-1.52-3.05-3.43v-4.14c0-1.9 1.07-3.43 3.05-3.43h1.19c1.97 0 2.76 1.5 2.76 3.43zm-2 0v-4.14c0-1.28-.22-2.29-1.37-2.29-1.34 0-1.63 1.04-1.63 2.29v4.14c0 1.25.3 2.29 1.63 2.29 1.12 0 1.37-1.02 1.37-2.29z" fill-opacity=".85" stroke-opacity=".64" stroke-width="2"/>
</svg>
