<svg height="24" width="24" xmlns="http://www.w3.org/2000/svg" xmlns:xlink="http://www.w3.org/1999/xlink">
<linearGradient id="a">
<stop offset="0" stop-color="#305080"/>
<stop offset="1" stop-color="#5b79a4"/>
</linearGradient>
<linearGradient id="b" gradientTransform="matrix(0 -1 1 0 -1.53 24)" gradientUnits="userSpaceOnUse" x1="-.5" x2="24.5" xlink:href="#a" y1="21.5" y2="21.5"/>
<linearGradient id="c" gradientTransform="matrix(0 -1 1 0 -1.53 24)" gradientUnits="userSpaceOnUse" x1="23.41" x2="20.5" xlink:href="#a" y1="21.5" y2="21.5"/>
<path d="m19.99 24 .02-22" fill="none" stroke="url(#b)" stroke-width="2"/>
<path d="m16 5 3.97-5 4.03 5" fill="url(#c)" fill-rule="evenodd"/>
<g transform="translate(40 1)">
<path d="m12.5 18v-15" fill="none" stroke="#000"/>
<g fill-rule="evenodd">
<path d="m8.5 5 4-6 4 6"/>
<path d="m8.5 16 4 6 4-6"/>
</g>
</g>
<g transform="matrix(0 -1 1 0 42 24)">
<path d="m12.5 18v-15" fill="none" stroke="#000"/>
<g fill-rule="evenodd">
<path d="m8.5 5 4-6 4 6"/>
<path d="m8.5 16 4 6 4-6"/>
</g>
</g>
<path d="m9.91 19.56-2.46-2.55c-.52-.54.28-1.37.8-.83l2.46 2.55 2.46-2.55c.53-.54 1.33.28.8.83l-2.46 2.55 2.46 2.55c.53.55-.27 1.38-.8.83l-2.46-2.55-2.46 2.55c-.53.55-1.33-.28-.8-.83zm5.07-7.77v2h-10.11l1.5 1.72c.53.55-.27 1.38-.8.83l-3.43-3.55c-.26-.27-.27-1.01.4-1.01zm-3.44-9.19c1.92 0 3.43 1.26 3.43 3.27v1.19c0 1.98-1.52 3.56-3.43 3.56h-6.14c-1.9 0-3.43-1.58-3.43-3.56v-1.19c0-1.97 1.5-3.27 3.43-3.27zm0 2h-6.14c-1.28 0-2.29.58-2.29 1.88 0 1.34 1.04 2.14 2.29 2.14h6.14c1.25 0 2.29-.81 2.29-2.14 0-1.34-1.02-1.88-2.29-1.88z" fill-opacity=".85" stroke-opacity=".64" stroke-width="2"/>
</svg>
