<svg height="24" width="24" xmlns="http://www.w3.org/2000/svg" xmlns:xlink="http://www.w3.org/1999/xlink">
<linearGradient id="a" gradientTransform="matrix(1 0 0 .89 7.24 7.73)" gradientUnits="userSpaceOnUse" spreadMethod="pad" x1="16.56" x2="3.5" y1="18.2" y2="2.54">
<stop offset="0" stop-color="#eef5fa"/>
<stop offset="1" stop-color="#d6e1ef"/>
</linearGradient>
<linearGradient gradientTransform="matrix(1 0 0 .89 7.24 7.73)" gradientUnits="userSpaceOnUse" spreadMethod="pad" x1="16.56" x2="3.5" y1="18.2" y2="2.54">
<stop offset="0" stop-color="#fdffff"/>
<stop offset="1" stop-color="#bbd4f1"/>
</linearGradient>
<linearGradient id="b" gradientTransform="matrix(1 0 0 .89 7.24 7.73)" gradientUnits="userSpaceOnUse" x1="13.09" x2="-.52" y1="17.64" y2="-6.4">
<stop offset="0" stop-color="#a1b4cf"/>
<stop offset="1" stop-color="#7b8199"/>
</linearGradient>
<linearGradient id="c" gradientTransform="matrix(.87 .5 .45 -.77 7.69 3.33)" gradientUnits="userSpaceOnUse" x1="7.53" x2="11.77" xlink:href="#a" y1="4.02" y2="4.78"/>
<linearGradient id="d" gradientTransform="matrix(.87 .5 .45 -.77 7.69 3.33)" gradientUnits="userSpaceOnUse" x1="4.44" x2="16.1" xlink:href="#b" y1="5.41" y2="3.09"/>
<linearGradient id="e" gradientTransform="matrix(1 0 0 .89 7.24 7.73)" gradientUnits="userSpaceOnUse" x1="13.76" x2="4.8" xlink:href="#b" y1="17.45" y2="3.11"/>
<linearGradient id="f" gradientTransform="matrix(1 0 0 .89 7.24 7.73)" gradientUnits="userSpaceOnUse" x1="8.76" x2="11.76" xlink:href="#a" y1="11.54" y2="11.54"/>
<linearGradient id="g" gradientTransform="matrix(0 1 -1 0 25.72 7.68)" gradientUnits="userSpaceOnUse" x1="4.98" x2="15.82" y1="7.18" y2="7.47">
<stop offset="0" stop-color="#7b8199"/>
<stop offset="1" stop-color="#a1b4cf"/>
</linearGradient>
<path d="m1 5 2 9 3-6 2.09 7.9 2.93-9.92 3.05 9.96 1.93-7.94 3.08 5.64 2.12-4.68" fill="none" stroke="#f00" stroke-linecap="round" stroke-linejoin="round" stroke-opacity=".6"/>
<path d="m10 5h2v2h-2z"/>
<path d="m5 7h2v2h-2z"/>
<path d="m2 13h2v2h-2z"/>
<path d="m0 4h2v2h-2z"/>
<path d="m15 7h2v2h-2z"/>
<path d="m7 15h2v2h-2z"/>
<g stroke-linecap="round">
<path d="m23 10.5-1 13h-10l-1-13z" fill="url(#f)" fill-rule="evenodd" stroke="url(#e)" stroke-dashoffset="21.44" stroke-linejoin="round"/>
<path d="m13.83 13 .66 10m2.51-10v10m3.22-10-.73 10" fill="none" stroke="url(#g)"/>
<path d="m23.5 9v-3.48l-8.5-4.52-3 2z" fill="url(#c)" fill-rule="evenodd" stroke="url(#d)" stroke-dashoffset="21.44" stroke-linejoin="round"/>
</g>
</svg>
