<svg height="24" width="24" xmlns="http://www.w3.org/2000/svg" xmlns:xlink="http://www.w3.org/1999/xlink">
<linearGradient id="a" gradientTransform="matrix(.95 0 0 1 4.49 2.94)" gradientUnits="userSpaceOnUse" x1="13.05" x2="4.09" y1="18.97" y2="15.05">
<stop offset="0" stop-color="#f3c668"/>
<stop offset="1" stop-color="#f9f398"/>
</linearGradient>
<linearGradient id="b" gradientTransform="matrix(.95 0 0 1 4.49 2.94)" gradientUnits="userSpaceOnUse" x1="13.05" x2="4.09" y1="18.97" y2="15.05">
<stop offset="0" stop-color="#705526"/>
<stop offset="1" stop-color="#c69c59"/>
</linearGradient>
<path d="m1 1 2 9 3-6 2.09 7.9 2.93-9.92 3.05 9.96 1.93-7.94 3.08 5.64 2.12-4.68 1.8 5.04" fill="none" stroke="#f00" stroke-linecap="round" stroke-linejoin="round" stroke-opacity=".6"/>
<path d="m10 1h2v2h-2z"/>
<path d="m5 3h2v2h-2z"/>
<path d="m2 9h2v2h-2z"/>
<path d="m0 0h2v2h-2z"/>
<path d="m15 3h2v2h-2z"/>
<path d="m20 4h2v2h-2z"/>
<path d="m22 9h2v2h-2z"/>
<path d="m7 11h2v2h-2z"/>
<path d="m13 11h2v2h-2z"/>
<path d="m18 9h2v2h-2z"/>
<path d="m21.5 15.5-14 .03c-1.3-.04-2 .88-2 1.99l.01 4c0 1.19.88 1.99 2 1.99l14-.03c1.07 0 2-.98 2-1.99l-.01-4c-.01-1.33-.93-1.99-2-1.99zm-12.02 2.04c1.19 0 2 1.04 2 2s-.79 2-2 2-2-1.04-2-2 .81-2 2-2z" fill="url(#a)" stroke="url(#b)" stroke-linejoin="round"/>
</svg>
