<?xml version="1.0" encoding="UTF-8"?>
<!-- Created with Inkscape (http://www.inkscape.org/) -->
<svg width="24" height="24" version="1.0" xmlns="http://www.w3.org/2000/svg" xmlns:cc="http://creativecommons.org/ns#" xmlns:dc="http://purl.org/dc/elements/1.1/" xmlns:rdf="http://www.w3.org/1999/02/22-rdf-syntax-ns#" xmlns:xlink="http://www.w3.org/1999/xlink">
 <defs>
  <linearGradient id="linearGradient4" x1="10.8" x2="22" y1="9.88" y2="18.7" gradientTransform="matrix(1.11 0 0 1.11 -2.02 -1.71)" gradientUnits="userSpaceOnUse">
   <stop stop-color="#f3c668" offset="0"/>
   <stop stop-color="#f9f398" offset="1"/>
  </linearGradient>
  <linearGradient id="linearGradient6" x1="1.91" x2="20.8" y1="6.31" y2="20.3" gradientTransform="matrix(1.11 0 0 1.11 -1.93 -1.84)" gradientUnits="userSpaceOnUse">
   <stop stop-color="#705526" offset="0"/>
   <stop stop-color="#c69c59" offset="1"/>
  </linearGradient>
 </defs>
 <metadata>
  <rdf:RDF>
   <cc:Work rdf:about="">
    <dc:format>image/svg+xml</dc:format>
    <dc:type rdf:resource="http://purl.org/dc/dcmitype/StillImage"/>
   </cc:Work>
  </rdf:RDF>
 </metadata>
 <g stroke-linejoin="round">
  <path d="m0 4.05 3 2.59 2.01-2.13 3.44 3.16 3.54-5.63 2 4 2-2 3 2 2.2-2.02 2.8 2.02" fill="none" stroke="#00e7ff" stroke-linecap="round" stroke-opacity=".591" stroke-width="4"/>
  <path d="m0 4.05 3 2.59 2.1-2.05 3.35 3.08 3.54-5.63 2 4 2-2 3 2 2.2-2.02 2.8 2.02" fill="none" stroke="#0079ff" stroke-linecap="round"/>
  <path d="m19.1 10.3c-1.11-1.11-2.2-0.694-3.01 0.299-1.19-1.2-2.37-0.904-3.16 0.0564-1.81-2.57-4.54-6.88-6.62-5.68-0.701 0.405-0.48 1.79 0.793 3.15 1.28 1.36 5.95 8.37 5.95 8.37-1.99-1.45-6.14-4.73-7.41-0.855 2.17 1.38 2.76 1.15 4.47 3.37 1.36 1.77 6.23 4.38 6.23 4.38l7.16-4.2c0.12-2.34-1.09-11.8-4.41-8.9z" fill="url(#linearGradient4)" fill-rule="evenodd" stroke="url(#linearGradient6)"/>
 </g>
</svg>
