<svg height="24" width="24" xmlns="http://www.w3.org/2000/svg" xmlns:xlink="http://www.w3.org/1999/xlink">
<linearGradient id="a" gradientTransform="matrix(.59 0 0 .61 1.51 8.4)" gradientUnits="userSpaceOnUse" x1="1" x2="23" y1="3.5" y2="3.5">
<stop offset="0" stop-color="#4c407b"/>
<stop offset="1" stop-color="#0eabef"/>
</linearGradient>
<linearGradient id="b" gradientUnits="userSpaceOnUse" x1="7.9571" x2="13.5374" y1="19.5042" y2="14.2146">
<stop offset="0" stop-color="#c7c7c7"/>
<stop offset="1" stop-color="#fff"/>
</linearGradient>
<linearGradient id="c">
<stop offset="0" stop-color="#305080"/>
<stop offset="1" stop-color="#5b79a4"/>
</linearGradient>
<linearGradient id="d" gradientUnits="userSpaceOnUse" x1="-.5" x2="17.99" xlink:href="#c" y1="21.5" y2="21.5"/>
<linearGradient id="e" gradientUnits="userSpaceOnUse" x1="23.27" x2="20.36" xlink:href="#c" y1="21.5" y2="21.5"/>
<g transform="matrix(0 -1 1 0 -17.5 24)">
<path d="m0 21.5h21" fill="none" stroke="url(#d)" stroke-width="2"/>
<path d="m18.86 17.5 5 4-5 4" fill="url(#e)" fill-rule="evenodd"/>
</g>
<g transform="translate(0 -1.5)">
<path d="m0 21.5h21" fill="none" stroke="url(#d)" stroke-width="2"/>
<path d="m18.86 17.5 5 4-5 4" fill="url(#e)" fill-rule="evenodd"/>
</g>
<rect fill="url(#b)" height="12" rx="1.07" ry="1" stroke="#6b6868" stroke-linecap="round" stroke-linejoin="round" width="12" x="2.53" y="9.5"/>
<g fill="#fcfdff" stroke="#f1fcff" stroke-linecap="round" stroke-linejoin="round" transform="matrix(1.09 0 0 1 2.06 -2.85)">
<path d="m20.6 3.63c0 .33-.28.59-.64.59-.35 0-.64-.26-.64-.59s.28-.59.64-.59c.35 0 .64.26.64.59z" transform="matrix(.6 0 0 .6 -3.65 11.27)"/>
<path d="m20.6 3.63c0 .33-.28.59-.64.59-.35 0-.64-.26-.64-.59s.28-.59.64-.59c.35 0 .64.26.64.59z" transform="matrix(.6 0 0 .6 -1.8 11.27)"/>
</g>
<path d="m5 18h7m-7-3h7" fill="none" stroke="#4c407b" stroke-width="1.5"/>
<g stroke-linecap="round">
<path d="m3.52 9.5h9.99c.54 0 .97.42.99.96l.03 1.04h-12v-.87c0-.63.51-1.13.99-1.13z" fill="#0eabef" stroke="url(#a)"/>
<g fill="#fcfdff" stroke="#f1fcff" stroke-linejoin="round" transform="matrix(1.09 0 0 1 2.08 -2.85)">
<path d="m20.6 3.63c0 .33-.28.59-.64.59-.35 0-.64-.26-.64-.59s.28-.59.64-.59c.35 0 .64.26.64.59z" transform="matrix(.6 0 0 .6 -3.65 11.27)"/>
<path d="m20.6 3.63c0 .33-.28.59-.64.59-.35 0-.64-.26-.64-.59s.28-.59.64-.59c.35 0 .64.26.64.59z" transform="matrix(.6 0 0 .6 -1.8 11.27)"/>
</g>
</g>
</svg>
