<svg height="24" width="24" xmlns="http://www.w3.org/2000/svg" xmlns:xlink="http://www.w3.org/1999/xlink">
<linearGradient id="a" gradientTransform="matrix(0 -1 1 0 -19 24)" gradientUnits="userSpaceOnUse" x1="-.5" x2="24.5" xlink:href="#c" y1="21.5" y2="21.5"/>
<linearGradient id="b" gradientTransform="matrix(0 -1 1 0 -19 23)" gradientUnits="userSpaceOnUse" x1="22.41" x2="19.5" xlink:href="#c" y1="21.5" y2="21.5"/>
<linearGradient id="c">
<stop offset="0" stop-color="#305080"/>
<stop offset="1" stop-color="#5b79a4"/>
</linearGradient>
<linearGradient id="d" gradientUnits="userSpaceOnUse" x1="-.5" x2="24.5" xlink:href="#c" y1="21.5" y2="21.5"/>
<linearGradient id="e" gradientUnits="userSpaceOnUse" x1="23.41" x2="20.5" xlink:href="#c" y1="21.5" y2="21.5"/>
<g fill="none" stroke="#003f80" stroke-opacity=".35">
<path d="m18.5 0v24"/>
<path d="m6.5 0v24"/>
<path d="m0 17.5h24"/>
</g>
<path d="m0 21.5h23" fill="none" stroke="url(#d)"/>
<path d="m21 19.5 3 2-3 2" fill="url(#e)" fill-rule="evenodd"/>
<path d="m2.5 24v-23" fill="none" stroke="url(#a)"/>
<path d="m.5 3 2-3 2 3" fill="url(#b)" fill-rule="evenodd"/>
<path d="m0 5.5h24" fill="none" stroke="#003f80" stroke-opacity=".35"/>
<path d="m6.51 11.49 3.76-3.86 5.24 9.76 3-6.15" fill="none" stroke="#305080" stroke-linejoin="round" stroke-width="1.5"/>
<g fill-opacity=".65">
<circle cx="6.51" cy="11.44" r="1.37"/>
<circle cx="10.32" cy="7.78" r="1.37"/>
<circle cx="15.41" cy="17.39" r="1.37"/>
<circle cx="18.41" cy="11.49" r="1.37"/>
</g>
</svg>
