<svg height="24" width="24" xmlns="http://www.w3.org/2000/svg" xmlns:xlink="http://www.w3.org/1999/xlink">
<linearGradient id="a" gradientTransform="matrix(0 -1 1 0 -19 24)" gradientUnits="userSpaceOnUse" x1="-.5" x2="24.5" xlink:href="#c" y1="21.5" y2="21.5"/>
<linearGradient id="b" gradientTransform="matrix(0 -1 1 0 -19 23)" gradientUnits="userSpaceOnUse" x1="22.41" x2="19.5" xlink:href="#c" y1="21.5" y2="21.5"/>
<linearGradient id="c">
<stop offset="0" stop-color="#305080"/>
<stop offset="1" stop-color="#5b79a4"/>
</linearGradient>
<linearGradient id="d" gradientUnits="userSpaceOnUse" x1="-.5" x2="24.5" xlink:href="#c" y1="21.5" y2="21.5"/>
<linearGradient id="e" gradientUnits="userSpaceOnUse" x1="23.41" x2="20.5" xlink:href="#c" y1="21.5" y2="21.5"/>
<path d="m18.5 1v24m-12-24v24" fill="none" stroke="#f00" stroke-dasharray="1 1"/>
<path d="m6 0h13v24h-13z" fill="#f00" fill-opacity=".17"/>
<path d="m0 21.5h23" fill="none" stroke="url(#d)"/>
<path d="m21 19.5 3 2-3 2" fill="url(#e)" fill-rule="evenodd"/>
<path d="m2.5 24v-23" fill="none" stroke="url(#a)"/>
<path d="m.5 3 2-3 2 3" fill="url(#b)" fill-rule="evenodd"/>
<g transform="translate(40 1)">
<path d="m12.5 18v-15" fill="none" stroke="#000"/>
<g fill-rule="evenodd">
<path d="m8.5 5 4-6 4 6"/>
<path d="m8.5 16 4 6 4-6"/>
</g>
</g>
<g transform="matrix(0 -1 1 0 42 24)">
<path d="m12.5 18v-15" fill="none" stroke="#000"/>
<g fill-rule="evenodd">
<path d="m8.5 5 4-6 4 6"/>
<path d="m8.5 16 4 6 4-6"/>
</g>
</g>
<path d="m6.51 11.49 3.66-8.03 5.44 15.81 2.9-8.03" fill="none" stroke="#e00000" stroke-linejoin="round" stroke-width="1.1"/>
<g fill-opacity=".65">
<circle cx="6.51" cy="11.44" r="1.37"/>
<circle cx="10.27" cy="3.31" r="1.37"/>
<circle cx="15.61" cy="19.27" r="1.37"/>
<circle cx="18.41" cy="11.49" r="1.37"/>
</g>
</svg>
