<svg height="24" width="24" xmlns="http://www.w3.org/2000/svg" xmlns:xlink="http://www.w3.org/1999/xlink">
<linearGradient id="a">
<stop offset="0" stop-color="#305080"/>
<stop offset="1" stop-color="#5b79a4"/>
</linearGradient>
<linearGradient id="b" gradientUnits="userSpaceOnUse" x1="-.5" x2="17.99" xlink:href="#a" y1="21.5" y2="21.5"/>
<linearGradient id="c" gradientUnits="userSpaceOnUse" x1="23.27" x2="20.36" xlink:href="#a" y1="21.5" y2="21.5"/>
<linearGradient id="d" gradientUnits="userSpaceOnUse" x1="15.28" x2="7" y1="20.54" y2="8.71">
<stop offset="0" stop-color="#550e0e"/>
<stop offset="1" stop-color="#f1a5a5"/>
</linearGradient>
<linearGradient id="e" gradientUnits="userSpaceOnUse" x1="13.05" x2="4.09" y1="18.97" y2="15.05">
<stop offset="0" stop-color="#705526"/>
<stop offset="1" stop-color="#c69c59"/>
</linearGradient>
<linearGradient id="f" gradientUnits="userSpaceOnUse" x1="13.05" x2="4.09" y1="18.97" y2="15.05">
<stop offset="0" stop-color="#f3c668"/>
<stop offset="1" stop-color="#f9f398"/>
</linearGradient>
<g transform="translate(0 -1.5)">
<path d="m0 21.5h21" fill="none" stroke="url(#b)" stroke-width="2"/>
<path d="m18.86 17.5 5 4-5 4" fill="url(#c)" fill-rule="evenodd"/>
</g>
<rect fill="url(#f)" height="3.77" ry="1.19" stroke="url(#e)" stroke-linejoin="round" transform="matrix(.71 -.71 .71 .71 0 0)" width="11.18" x="3.12" y="14.63"/>
<g transform="translate(-1.04)">
<circle cx="9.15" cy="15.41" fill="#eacbe0" r="7.19" stroke="url(#d)" stroke-width="1.7"/>
<path d="m5.66 19.75c-4.58-4.41.03-11.72 6.03-9.61-4.68.25-7.53 6.83-6.03 9.61z" fill="#9e42c9" fill-opacity=".56"/>
<ellipse cx="-5.71" cy="21.38" fill="#fff" rx="3.04" ry="1.08" transform="matrix(.73 -.69 .75 .66 0 0)"/>
<ellipse cx="-4.47" cy="12.09" fill="#fff" rx="2.4" ry=".85" transform="matrix(.68 -.73 .7 .71 0 0)"/>
<g fill="none" stroke="#642d2d" stroke-width="2.37">
<path d="m9.17 10.6v9.46"/>
<path d="m4.44 15.33h9.46"/>
</g>
</g>
</svg>
