<svg height="24" width="24" xmlns="http://www.w3.org/2000/svg" xmlns:xlink="http://www.w3.org/1999/xlink">
<linearGradient id="a" gradientUnits="userSpaceOnUse" x1="13.9271" x2="19.5074" y1="19.5042" y2="14.2146">
<stop offset="0" stop-color="#c7c7c7"/>
<stop offset="1" stop-color="#fff"/>
</linearGradient>
<linearGradient id="b" gradientTransform="matrix(.59 0 0 .61 7.48 8.4)" gradientUnits="userSpaceOnUse" x1="1" x2="23" y1="3.5" y2="3.5">
<stop offset="0" stop-color="#550e0e"/>
<stop offset="1" stop-color="#d88989"/>
</linearGradient>
<linearGradient id="c">
<stop offset="0" stop-color="#305080"/>
<stop offset="1" stop-color="#5b79a4"/>
</linearGradient>
<linearGradient id="d" gradientUnits="userSpaceOnUse" x1="-.5" x2="17.99" xlink:href="#c" y1="21.5" y2="21.5"/>
<linearGradient id="e" gradientUnits="userSpaceOnUse" x1="23.27" x2="20.36" xlink:href="#c" y1="21.5" y2="21.5"/>
<g transform="matrix(0 -1 1 0 -17.5 24)">
<path d="m0 21.5h21" fill="none" stroke="url(#d)" stroke-width="2"/>
<path d="m18.86 17.5 5 4-5 4" fill="url(#e)" fill-rule="evenodd"/>
</g>
<g transform="translate(0 -1.5)">
<path d="m0 21.5h21" fill="none" stroke="url(#d)" stroke-width="2"/>
<path d="m18.86 17.5 5 4-5 4" fill="url(#e)" fill-rule="evenodd"/>
</g>
<g stroke-linecap="round">
<rect fill="url(#a)" height="12" rx=".97" stroke="#6b6868" stroke-linejoin="round" width="12" x="8.5" y="9.5"/>
<path d="m9.5 9.5h10c.5 0 1 .5 1 1v1h-12v-1c0-.5.5-1 1-1z" fill="#bd6e6e" stroke="url(#b)"/>
<g fill="#fcfdff" stroke="#f1fcff" stroke-linejoin="round" transform="matrix(1.09 0 0 1 8.06 -2.85)">
<path d="m20.6 3.63c0 .33-.28.59-.64.59-.35 0-.64-.26-.64-.59s.28-.59.64-.59c.35 0 .64.26.64.59z" transform="matrix(.6 0 0 .6 -3.65 11.27)"/>
<path d="m20.6 3.63c0 .33-.28.59-.64.59-.35 0-.64-.26-.64-.59s.28-.59.64-.59c.35 0 .64.26.64.59z" transform="matrix(.6 0 0 .6 -1.8 11.27)"/>
</g>
<path d="m13 19 3-5m-3 0 3 5" fill="none" stroke="#550e0e"/>
</g>
</svg>
