<svg height="24" width="24" xmlns="http://www.w3.org/2000/svg" xmlns:xlink="http://www.w3.org/1999/xlink">
<linearGradient id="a" gradientUnits="userSpaceOnUse" x1="31.09" x2="39.93" y1="17.07" y2="20.22">
<stop offset="0" stop-color="#f9f398"/>
<stop offset="1" stop-color="#f3c668"/>
</linearGradient>
<linearGradient id="b" gradientUnits="userSpaceOnUse" x1="29.74" x2="39.02" y1="17.12" y2="22.52">
<stop offset="0" stop-color="#c69c59"/>
<stop offset="1" stop-color="#705526"/>
</linearGradient>
<linearGradient id="c" gradientUnits="userSpaceOnUse" x1="38.77" x2="41.84" xlink:href="#d" y1="10.75" y2="11.41"/>
<linearGradient id="d">
<stop offset="0" stop-color="#d2d2dd"/>
<stop offset="1" stop-color="#a3aab7"/>
</linearGradient>
<linearGradient id="e" gradientUnits="userSpaceOnUse" x1="36.64" x2="40.98" xlink:href="#d" y1="14.53" y2="16.21"/>
<linearGradient id="f">
<stop offset="0" stop-color="#87714d"/>
<stop offset="1" stop-color="#c69c59"/>
</linearGradient>
<linearGradient id="g">
<stop offset="0" stop-color="#f3c668"/>
<stop offset="1" stop-color="#f9f398"/>
</linearGradient>
<linearGradient id="h" gradientUnits="userSpaceOnUse" x1="1" x2="16" xlink:href="#f" y1="19" y2="9"/>
<linearGradient id="i" gradientUnits="userSpaceOnUse" x1="3" x2="10" xlink:href="#g" y1="15" y2="10"/>
<linearGradient id="j" gradientUnits="userSpaceOnUse" x1="7" x2="18" xlink:href="#g" y1="18" y2="20"/>
<linearGradient id="k" gradientUnits="userSpaceOnUse" x1="7.02" x2="20" xlink:href="#f" y1="23.5" y2="14.61"/>
<path d="m.5 23.5v-14.5l2.5-4.5h7l1 3h7v14z" fill="url(#i)" fill-rule="evenodd" opacity=".67" stroke="url(#h)" stroke-linejoin="round"/>
<path d="m8.2 16.12c-2.09-.91-4.89-2.88-5.87-5.12-.25-.57-.71-2.15 1.67-2.17 1.01-.01 2.56-.32 4-1.45.87-.68 1.12-1.28 2.8-2.05l3.88 10.48z" fill="#fff" fill-opacity=".79"/>
<g transform="translate(-25.26 -7.12)">
<path d="m34.73 15.11c-2.09 1.7-4.04 1.9-6.09 2.15 1.6 3.12 5.67 5.56 10.03 6.09 1.25-1.79 1.93-3.33 2.69-5.81" fill="url(#a)" fill-rule="evenodd" stroke="url(#b)" stroke-linejoin="round" stroke-width=".75"/>
<path d="m37.33 13.22c1.11-2.25 1.38-3.59 1.99-5.17.45-1.18 4.01-.51 3.92.6-.1 1.32-1.03 4.33-1.89 5.92" fill="url(#c)" fill-rule="evenodd" stroke="#545f88" stroke-width=".6"/>
<path d="m38.64 12.7c.53-1.09 1.15-2.94 1.53-4.09" fill="none" stroke="#fff" stroke-linecap="round" stroke-opacity=".52"/>
<path d="m35.96 16.16c-.61.67-2.34 1.82-4.04 2.25m5.46-1.55c-.78 1.15-2.19 2.33-3.57 3.02m5.39-2.44c-.54 1.02-1.17 2.18-2.94 3.52" fill="none" stroke="#c69c59" stroke-linecap="round" stroke-width=".4"/>
<path d="m34.16 15.04c1.68 1.31 4.65 2.27 7.28 2.74.36-1.26.39-2.05-.07-3.26l-4.14-1.27c-1.29.29-1.73.86-3.07 1.8z" fill="url(#e)" fill-rule="evenodd" stroke="#545f88" stroke-linejoin="round" stroke-width=".6"/>
</g>
<path d="m16 13h-5c-2 0-2 .39-3 1.95l2 .96 4.35-.03 1.24-2.88" fill="#fff" fill-opacity=".72"/>
<path d="m.6 23.5h16.4l6-9h-13l-2.18 3h-2.82z" fill="url(#j)" fill-rule="evenodd" stroke="url(#k)" stroke-linejoin="round"/>
</svg>
