<svg height="24" width="24" xmlns="http://www.w3.org/2000/svg" xmlns:xlink="http://www.w3.org/1999/xlink">
<linearGradient id="a" gradientTransform="matrix(.6 0 0 .55 1.57 1.74)" gradientUnits="userSpaceOnUse" x1="11.03" x2="20.82" y1="19.06" y2="9.78">
<stop offset="0" stop-color="#c7c7c7"/>
<stop offset="1" stop-color="#fff"/>
</linearGradient>
<linearGradient id="b" gradientTransform="matrix(.6 0 0 .61 1.55 1.63)" gradientUnits="userSpaceOnUse" x1="1" x2="23" y1="3.5" y2="3.5">
<stop offset="0" stop-color="#4c407b"/>
<stop offset="1" stop-color="#6ccdf6"/>
</linearGradient>
<linearGradient id="c" gradientTransform="matrix(.6 0 0 .61 1.55 1.63)" gradientUnits="userSpaceOnUse" x1="1" x2="23" y1="3.5" y2="3.5">
<stop offset="0" stop-color="#443289"/>
<stop offset="1" stop-color="#4aa7cf"/>
</linearGradient>
<g stroke-linecap="round">
<rect fill="url(#a)" height="19.94" rx=".95" ry=".88" stroke="#979494" stroke-linejoin="round" width="15.99" x="2.47" y="2.57"/>
<path d="m3.4 2.55h14.12c.53 0 .95.44.95.98v1.01h-16.02v-1c0-.54.42-.98.95-.98z" fill="url(#b)" stroke="url(#c)"/>
<g fill="#fcfdff" stroke="#f1fcff" stroke-linejoin="round" stroke-width=".99" transform="matrix(1.11 0 0 1.01 6.14 -9.87)">
<path d="m20.6 3.63c0 .33-.28.59-.64.59-.35 0-.64-.26-.64-.59s.28-.59.64-.59c.35 0 .64.26.64.59z" transform="matrix(.6 0 0 .6 -3.65 11.27)"/>
<path d="m20.6 3.63c0 .33-.28.59-.64.59-.35 0-.64-.26-.64-.59s.28-.59.64-.59c.35 0 .64.26.64.59z" transform="matrix(.6 0 0 .6 -1.8 11.27)"/>
</g>
</g>
<path d="m16.51 21-.03-15m-3.97 1v13m-4-13v13m-4-13v13m-.5-13.5h12m-12 14h12" fill="none" stroke="#818eaf"/>
<path d="m4.5 8.52h12m-12 2.97h12m-12 2.99h12m-12 3.04h12" fill="none" stroke="#818eaf"/>
</svg>
