<svg height="24" width="24" xmlns="http://www.w3.org/2000/svg" xmlns:xlink="http://www.w3.org/1999/xlink">
<linearGradient id="a" gradientUnits="userSpaceOnUse" x1="8.62" x2="17.9" y1="15.59" y2="20.99">
<stop offset="0" stop-color="#c69c59"/>
<stop offset="1" stop-color="#705526"/>
</linearGradient>
<linearGradient id="b" gradientUnits="userSpaceOnUse" x1="9.97" x2="18.81" y1="15.54" y2="18.69">
<stop offset="0" stop-color="#f9f398"/>
<stop offset="1" stop-color="#f3c668"/>
</linearGradient>
<linearGradient id="c" gradientUnits="userSpaceOnUse" x1="17.65" x2="20.72" xlink:href="#e" y1="9.22" y2="9.88"/>
<linearGradient id="d" gradientUnits="userSpaceOnUse" x1="15.52" x2="19.86" xlink:href="#e" y1="13" y2="14.68"/>
<linearGradient id="e">
<stop offset="0" stop-color="#d2d2dd"/>
<stop offset="1" stop-color="#a3aab7"/>
</linearGradient>
<linearGradient id="f" gradientTransform="matrix(.83 0 0 .93 1.35 .35)" gradientUnits="userSpaceOnUse" x1="3" x2="18" y1="18" y2="5">
<stop offset="0" stop-color="#5a441f"/>
<stop offset="1" stop-color="#c69c59"/>
</linearGradient>
<linearGradient id="g" gradientTransform="matrix(.83 0 0 .93 1.35 .35)" gradientUnits="userSpaceOnUse" x1="18" x2="3" y1="18" y2="5">
<stop offset="0" stop-color="#f3c668"/>
<stop offset="1" stop-color="#f9f398"/>
</linearGradient>
<linearGradient id="h" gradientUnits="userSpaceOnUse" x1="5" x2="15" y1="3.51" y2="3.51">
<stop offset="0" stop-color="#cf9a01"/>
<stop offset="1" stop-color="#ddb138"/>
</linearGradient>
<linearGradient id="i" gradientUnits="userSpaceOnUse" x1="5" x2="15" y1="3.51" y2="3.51">
<stop offset="0" stop-color="#5a441f"/>
<stop offset="1" stop-color="#a47c38"/>
</linearGradient>
<g stroke-linejoin="round">
<rect fill="url(#g)" fill-rule="evenodd" height="15" rx=".63" ry=".55" stroke="url(#f)" stroke-dashoffset="21.44" stroke-linecap="square" width="15" x="2.5" y="3.5"/>
<path d="m5.5 5.51h9l-2-2v-2h-5v2z" fill="url(#h)" fill-rule="evenodd" stroke="url(#i)"/>
<path d="m12.29 5h-5.49l1.16-1v-2" fill="none" stroke="#fffbab" stroke-linecap="round" stroke-width=".6"/>
</g>
<path d="m7.66 19c-.59-.7-1.21-1.27-1.66-2.5-.23-1.16-.05-2.17 1.37-2.37 1.81-.18 3.64-.62 4.63-1.37.92-.78 1.57-1.81 3-2.12 1-1.88 1.28-5.13 3-5.64v14z" fill="#fff" fill-opacity=".79"/>
<path d="m13.61 13.58c-2.09 1.7-4.04 1.9-6.09 2.15 1.6 3.12 5.67 5.56 10.03 6.09 1.25-1.79 1.93-3.33 2.69-5.81" fill="url(#b)" fill-rule="evenodd" stroke="url(#a)" stroke-linejoin="round" stroke-width=".75"/>
<path d="m16.21 11.69c1.11-2.25 1.38-3.59 1.99-5.17.45-1.18 4.01-.51 3.92.6-.1 1.32-1.03 4.33-1.89 5.92" fill="url(#c)" fill-rule="evenodd" stroke="#545f88" stroke-width=".6"/>
<path d="m17.52 11.17c.53-1.09 1.15-2.94 1.53-4.09" fill="none" stroke="#fff" stroke-linecap="round" stroke-opacity=".52"/>
<path d="m14.84 14.63c-.61.67-2.34 1.82-4.04 2.25m5.46-1.55c-.78 1.15-2.19 2.33-3.57 3.02m5.39-2.44c-.54 1.02-1.17 2.18-2.94 3.52" fill="none" stroke="#c69c59" stroke-linecap="round" stroke-width=".4"/>
<path d="m13.04 13.51c1.68 1.31 4.65 2.27 7.28 2.74.36-1.26.39-2.05-.07-3.26l-4.14-1.27c-1.29.29-1.73.86-3.07 1.8z" fill="url(#d)" fill-rule="evenodd" stroke="#545f88" stroke-linejoin="round" stroke-width=".6"/>
</svg>
