<svg height="24" width="24" xmlns="http://www.w3.org/2000/svg" xmlns:xlink="http://www.w3.org/1999/xlink">
<linearGradient id="a" gradientUnits="userSpaceOnUse" x1="16.97" x2="18.97" xlink:href="#d" y1="14.04" y2="11.04"/>
<linearGradient id="b" gradientUnits="userSpaceOnUse" x1="17.95" x2="14.75" xlink:href="#e" y1="12.17" y2="15.37"/>
<linearGradient id="c" gradientUnits="userSpaceOnUse" x1="9.49" x2="31.78" y1="15.22" y2="15.22">
<stop offset="0" stop-color="#818eaf"/>
<stop offset="1" stop-color="#818eaf" stop-opacity="0"/>
</linearGradient>
<linearGradient id="d">
<stop offset="0" stop-color="#fdffff"/>
<stop offset="1" stop-color="#b2d3fa"/>
</linearGradient>
<linearGradient id="e">
<stop offset="0" stop-color="#92b1de"/>
<stop offset="1" stop-color="#525f96"/>
</linearGradient>
<linearGradient id="f" gradientTransform="matrix(.82 0 0 .93 1.35 .35)" gradientUnits="userSpaceOnUse" x1="3.22" x2="18" y1="17.98" y2="5">
<stop offset="0" stop-color="#87714d"/>
<stop offset="1" stop-color="#c69c59"/>
</linearGradient>
<linearGradient id="g" gradientTransform="matrix(.82 0 0 .93 1.35 .35)" gradientUnits="userSpaceOnUse" x1="18" x2="3" y1="18" y2="5">
<stop offset="0" stop-color="#f3c668"/>
<stop offset="1" stop-color="#f9f398"/>
</linearGradient>
<linearGradient id="h" gradientUnits="userSpaceOnUse" x1="5" x2="15" y1="3.51" y2="3.51">
<stop offset="0" stop-color="#cf9a01"/>
<stop offset="1" stop-color="#ddb138"/>
</linearGradient>
<linearGradient id="i" gradientTransform="matrix(1.01 0 0 .91 2.35 6.73)" gradientUnits="userSpaceOnUse" x1="6.57" x2="16.45" xlink:href="#d" y1="2.66" y2="16.98"/>
<linearGradient id="j" gradientTransform="matrix(1.01 0 0 .91 2.35 6.73)" gradientUnits="userSpaceOnUse" x1="15.47" x2="6.57" xlink:href="#e" y1="7.07" y2="16.98"/>
<linearGradient id="k" gradientUnits="userSpaceOnUse" x1="5" x2="15" y1="3.51" y2="3.51">
<stop offset="0" stop-color="#5a441f"/>
<stop offset="1" stop-color="#a47c38"/>
</linearGradient>
<g stroke-linejoin="round">
<rect fill="url(#g)" fill-rule="evenodd" height="15" rx=".63" ry=".56" stroke="url(#f)" stroke-dashoffset="21.44" stroke-linecap="square" width="15" x="2.5" y="3.5"/>
<path d="m5.5 5.51h9l-2-2v-2h-5v2z" fill="url(#h)" fill-rule="evenodd" stroke="url(#k)"/>
<path d="m7.5 19v-11.5h7.29l3.21 3.05" fill="none" stroke="#fff" stroke-linecap="square" stroke-opacity=".63"/>
<path d="m22.5 14.73v6.77h-14v-13l8.54-.01" fill="url(#i)" fill-rule="evenodd" stroke="url(#j)" stroke-dashoffset="21.44" stroke-linecap="round"/>
</g>
<path d="m22.91 14.23h-5v-5.95" fill="url(#a)" fill-rule="evenodd"/>
<path d="m22.5 14.52-5-.04v-5.98" fill="none" stroke="url(#b)" stroke-linecap="round" stroke-linejoin="round"/>
<path d="m18.49 14.97v5m-3.99-9v9m-4-9v9m-.51-9.47h7.01m-7.01 3h7.01m-7.01 3h12m-12 3h12" fill="none" stroke="url(#c)"/>
</svg>
