<svg height="24" width="24" xmlns="http://www.w3.org/2000/svg" xmlns:xlink="http://www.w3.org/1999/xlink">
<linearGradient id="a">
<stop offset="0" stop-color="#818eaf"/>
<stop offset="1" stop-color="#818eaf" stop-opacity="0"/>
</linearGradient>
<linearGradient id="b">
<stop offset="0" stop-color="#fdffff"/>
<stop offset="1" stop-color="#b2d3fa"/>
</linearGradient>
<linearGradient id="c">
<stop offset="0" stop-color="#92b1de"/>
<stop offset="1" stop-color="#525f96"/>
</linearGradient>
<linearGradient id="d" gradientTransform="matrix(.82 0 0 .93 1.35 .35)" gradientUnits="userSpaceOnUse" x1="3.23" x2="18" y1="17.9" y2="5">
<stop offset="0" stop-color="#87714d"/>
<stop offset="1" stop-color="#c69c59"/>
</linearGradient>
<linearGradient id="e" gradientTransform="matrix(.82 0 0 .93 1.35 .35)" gradientUnits="userSpaceOnUse" x1="18" x2="3" y1="18" y2="5">
<stop offset="0" stop-color="#f3c668"/>
<stop offset="1" stop-color="#f9f398"/>
</linearGradient>
<linearGradient id="f" gradientUnits="userSpaceOnUse" x1="5" x2="15" y1="3.51" y2="3.51">
<stop offset="0" stop-color="#cf9a01"/>
<stop offset="1" stop-color="#ddb138"/>
</linearGradient>
<linearGradient id="g" gradientUnits="userSpaceOnUse" x1="16" x2="12.8" xlink:href="#c" y1="12" y2="15.2"/>
<linearGradient id="h" gradientUnits="userSpaceOnUse" x1="15" x2="17" xlink:href="#b" y1="14" y2="11"/>
<linearGradient id="i" gradientUnits="userSpaceOnUse" x1="10.5" x2="17.5" xlink:href="#a" y1="15.5" y2="15.5"/>
<linearGradient id="j" gradientUnits="userSpaceOnUse" x1="10.5" x2="17.5" xlink:href="#a" y1="13.5" y2="13.5"/>
<linearGradient id="k" gradientUnits="userSpaceOnUse" x1="10.5" x2="17.5" xlink:href="#a" y1="17.5" y2="17.5"/>
<linearGradient id="l" gradientUnits="userSpaceOnUse" x1="10.5" x2="17.5" xlink:href="#a" y1="19.5" y2="19.5"/>
<linearGradient id="m" gradientUnits="userSpaceOnUse" x1="10.5" x2="17.5" xlink:href="#a" y1="11.5" y2="11.5"/>
<linearGradient id="n" gradientTransform="matrix(1.01 0 0 .91 2.35 6.58)" gradientUnits="userSpaceOnUse" x1="6.57" x2="16.45" xlink:href="#b" y1="2.66" y2="16.98"/>
<linearGradient id="o" gradientTransform="matrix(1.01 0 0 .91 2.35 6.58)" gradientUnits="userSpaceOnUse" x1="15.47" x2="6.57" xlink:href="#c" y1="7.07" y2="16.98"/>
<linearGradient id="p" gradientUnits="userSpaceOnUse" x1="5" x2="15" y1="3.51" y2="3.51">
<stop offset="0" stop-color="#5a441f"/>
<stop offset="1" stop-color="#a47c38"/>
</linearGradient>
<g stroke-linejoin="round">
<rect fill="url(#e)" fill-rule="evenodd" height="15" rx=".63" ry=".56" stroke="url(#d)" stroke-dashoffset="21.44" stroke-linecap="square" width="15" x="2.5" y="3.5"/>
<path d="m5.5 5.51h9l-2-2v-2h-5v2z" fill="url(#f)" fill-rule="evenodd" stroke="url(#p)"/>
<path d="m20.5 14.58v6.92h-12v-13h5.9" fill="url(#n)" fill-rule="evenodd" stroke="url(#o)" stroke-dashoffset="21.44" stroke-linecap="round"/>
</g>
<g fill="none" stroke-linecap="square">
<path d="m11 11.5h6" stroke="url(#m)"/>
<path d="m11 19.5h6" stroke="url(#l)"/>
<path d="m11 17.5h6" stroke="url(#k)"/>
<path d="m11 13.5h6" stroke="url(#j)"/>
<path d="m11 15.5h6" stroke="url(#i)"/>
</g>
<path d="m20.95 14.1h-6.05v-5.86" fill="url(#h)" fill-rule="evenodd"/>
<path d="m20.6 14.5h-6.1v-5.9" fill="none" stroke="url(#g)" stroke-linecap="round" stroke-linejoin="round"/>
<path d="m7.5 19v-11.5h7.29l3.21 3.05" fill="none" stroke="#fff" stroke-linecap="square" stroke-linejoin="round" stroke-opacity=".63"/>
</svg>
