<svg height="24" width="24" xmlns="http://www.w3.org/2000/svg" xmlns:xlink="http://www.w3.org/1999/xlink">
<linearGradient id="a">
<stop offset="0" stop-color="#92b1de"/>
<stop offset="1" stop-color="#525f96"/>
</linearGradient>
<linearGradient id="b">
<stop offset="0" stop-color="#fdffff"/>
<stop offset="1" stop-color="#b2d3fa"/>
</linearGradient>
<linearGradient id="c" gradientUnits="userSpaceOnUse" x1="18.13" x2="15.13" xlink:href="#a" y1="5.17" y2="8.17"/>
<linearGradient id="d" gradientUnits="userSpaceOnUse" x1="15.13" x2="18.13" xlink:href="#b" y1="8.17" y2="5.17"/>
<linearGradient id="e" gradientTransform="matrix(1.01 0 0 .91 -.52 -.24)" gradientUnits="userSpaceOnUse" x1="5" x2="20" xlink:href="#b" y1="3" y2="21"/>
<linearGradient id="f" gradientTransform="matrix(1.01 0 0 .91 -.52 -.24)" gradientUnits="userSpaceOnUse" x1="17.56" x2="4.4" xlink:href="#a" y1="5.82" y2="23.8"/>
<path d="m20.5 8.76v12.74h-17v-19h11.03" style="fill-rule:evenodd;stroke-linecap:round;stroke-linejoin:round;stroke-dashoffset:21.44;fill:url(#e);stroke:url(#f)"/>
<path d="m4.36 9.56 1.18-4.65 1.31 5.92 1.81-3.97.87 5.06 1.84-6.51 1.79 6.59 1.49-3.4 1.53 2.63 1.61-4.15.89 3.32 1.31-2.53" fill="none" stroke="#f00" stroke-linecap="round" stroke-linejoin="round" stroke-width=".5"/>
<path d="m20.89 8.18h-6.05v-6.06" fill="url(#d)" fill-rule="evenodd"/>
<g fill="none" stroke-linecap="round" stroke-linejoin="round">
<path d="m20.5 8.5h-6v-5.93" stroke="url(#c)"/>
<path d="m4.38 17.57.59 1.93 1.06-5.57 1.46 4.68 1.22-3.37.98 4.4 1.74-6.15 1.15 5.65 1.33.38.66-3.71 1.58 2.7 1.33-4.38 1.24 5.56 1.16-4.55" stroke="#008700" stroke-width=".5"/>
</g>
</svg>
