<svg height="24" width="24" xmlns="http://www.w3.org/2000/svg" xmlns:xlink="http://www.w3.org/1999/xlink">
<linearGradient id="a" gradientUnits="userSpaceOnUse" x1="12" x2="22" y1="12" y2="23">
<stop offset="0" stop-color="#a1de92"/>
<stop offset="1" stop-color="#5f9652"/>
</linearGradient>
<linearGradient id="b" gradientUnits="userSpaceOnUse" x1="11" x2="24" y1="10" y2="24">
<stop offset="0" stop-color="#50b938"/>
<stop offset="1" stop-color="#2f4b29"/>
</linearGradient>
<linearGradient id="c">
<stop offset="0" stop-color="#fdffff"/>
<stop offset="1" stop-color="#b2d3fa"/>
</linearGradient>
<linearGradient id="d">
<stop offset="0" stop-color="#92b1de"/>
<stop offset="1" stop-color="#525f96"/>
</linearGradient>
<linearGradient id="e" gradientTransform="matrix(1.01 0 0 .91 -6.68 -6.96)" gradientUnits="userSpaceOnUse" x1="5" x2="20" xlink:href="#c" y1="3" y2="21"/>
<linearGradient id="f" gradientTransform="matrix(1.01 0 0 .91 -6.68 -6.96)" gradientUnits="userSpaceOnUse" x1="17.56" x2="4.4" xlink:href="#d" y1="5.82" y2="23.8"/>
<linearGradient id="g" gradientUnits="userSpaceOnUse" x1="8.96" x2="11.96" xlink:href="#c" y1="1.46" y2="-1.54"/>
<linearGradient id="h" gradientUnits="userSpaceOnUse" x1="11.96" x2="8.96" xlink:href="#d" y1="-1.54" y2="1.46"/>
<g opacity=".69" transform="translate(3.16 4.72)">
<path d="m14.34 2.04v13.74h-17v-20h11.02" style="fill-rule:evenodd;stroke-linecap:round;stroke-linejoin:round;stroke-dashoffset:21.44;fill:url(#e);stroke:url(#f)"/>
<path d="m-1.81 2.84 1.18-4.64 1.31 5.92 1.81-3.98.87 5.06 1.84-6.51 1.79 6.59 1.48-3.4 1.53 2.63 1.61-4.15.89 3.32 1.3-2.53" fill="none" stroke="#f00" stroke-linecap="round" stroke-linejoin="round" stroke-width=".5"/>
<path d="m14.73 1.46h-6.06v-6.06" fill="url(#g)" fill-rule="evenodd"/>
<g fill="none" stroke-linecap="round" stroke-linejoin="round">
<path d="m14.34 1.78h-6v-5.93" stroke="url(#h)"/>
<path d="m-1.79 10.85.59 1.93 1.06-5.57 1.46 4.68 1.22-3.37.98 4.4 1.74-6.15 1.15 5.65 1.33.38.66-3.71 1.58 2.7 1.33-4.38 1.24 5.56 1.16-4.55" stroke="#008700" stroke-width=".5"/>
</g>
</g>
<path d="m15.49 11.5.03 4h-4.01l-.03 4h4v4h4v-4h4.01l.03-4h-4l-.03-4z" fill="url(#a)" stroke="url(#b)"/>
<path d="m14.5 20.5h-4v-6h4v-4h6v4" fill="none" stroke="#fff" stroke-linecap="square" stroke-opacity=".63"/>
</svg>
