<svg height="24" width="24" xmlns="http://www.w3.org/2000/svg" xmlns:xlink="http://www.w3.org/1999/xlink">
<linearGradient id="a" gradientUnits="userSpaceOnUse" x1="-.5" x2="24.5" y1="21.5" y2="21.5">
<stop offset="0" stop-color="#6b7c98"/>
<stop offset="1" stop-color="#5b79a4"/>
</linearGradient>
<path d="m0 21.5h23" fill="none" stroke="url(#a)"/>
<path d="m21 19.5 3 2-3 2" fill="#6b7c98" fill-rule="evenodd"/>
<path d="m2.5 24v-11" fill="none" stroke="#6b7c98"/>
<path d="m.5 13 2-3 2 3" fill="#6b7c98" fill-rule="evenodd"/>
<path d="m5.51.54h16v9h-16z" fill="#f9f9f9" stroke="#1b5bcc" stroke-linecap="round" stroke-linejoin="round"/>
<g fill="#1b5bcc" transform="scale(.93 1.07)">
<path d="m9.31 6.11c.48.43 1.22-.06 1.23-.9-1.06-.22-1.74.46-1.23.9zm2.38-1.33v2.15s-1.12-.01-2.36-.03c-.71 0-1.23-.42-1.25-1.15-.03-1.16 1.44-1.37 2.46-1.22-.19-.82-1.25-.62-2.14-.31l-.35-.77c1.68-.69 3.64-.45 3.64 1.33z"/>
<path d="m14.66 6.08c1.11 0 .9-2.12 0-2.09-.95.03-.9 2.09 0 2.09zm-.76-2.31c1.05-1.04 2.67-.2 2.69 1.26.01 1.09-.46 1.86-1.51 1.87-1.44-.02-2.31 0-2.31 0l-.01-5.05h1.14z"/>
<path d="m20.66 3.55-.44.73c-1.09-.59-1.87-.19-1.87.76.01 1.05 1.14 1.06 1.96.74l.37.85c-2.15.79-3.48-.2-3.51-1.59-.05-1.9 1.98-2.44 3.49-1.49z"/>
</g>
<path d="m.25 18.23 1.56.77 1.42-1.02 2.6 1.52 1.53-6.61 1.3 6.27 1.97-.08 1.44-3.17 1.74 3.09 1.57-.49 1.09.65 1.53-5.05 1.3 5.06 1.34-1.22 1 1.13 1.67-.48 1.46.46" fill="none" stroke="#18b26f" stroke-linecap="round" stroke-linejoin="round"/>
</svg>
