<?xml version="1.0" encoding="UTF-8"?>
<svg width="24" height="24" version="1.1" xmlns="http://www.w3.org/2000/svg" xmlns:xlink="http://www.w3.org/1999/xlink">
 <linearGradient id="b">
  <stop stop-color="#fdffff" offset="0"/>
  <stop stop-color="#b2d3fa" offset="1"/>
 </linearGradient>
 <linearGradient id="c">
  <stop stop-color="#92b1de" offset="0"/>
  <stop stop-color="#525f96" offset="1"/>
 </linearGradient>
 <linearGradient id="d" x1="5" x2="20" y1="3" y2="21" gradientTransform="matrix(1.01 0 0 .91 -6.68 -6.96)" gradientUnits="userSpaceOnUse" xlink:href="#b"/>
 <linearGradient id="e" x1="17.6" x2="4.4" y1="5.82" y2="23.8" gradientTransform="matrix(1.01 0 0 .91 -6.68 -6.96)" gradientUnits="userSpaceOnUse" xlink:href="#c"/>
 <linearGradient id="f" x1="8.96" x2="12" y1="1.46" y2="-1.54" gradientUnits="userSpaceOnUse" xlink:href="#b"/>
 <linearGradient id="g" x1="12" x2="8.96" y1="-1.54" y2="1.46" gradientUnits="userSpaceOnUse" xlink:href="#c"/>
 <g transform="translate(3.16 4.72)" opacity=".69">
  <path d="m14.3 2.04v13.7h-17v-20h11" fill="url(#d)" fill-rule="evenodd" stroke="url(#e)" stroke-dashoffset="21.4" stroke-linecap="round" stroke-linejoin="round"/>
  <path d="m-1.81 2.84 1.18-4.64 1.31 5.92 1.81-3.98.87 5.06 1.84-6.51 1.79 6.59 1.48-3.4 1.53 2.63 1.61-4.15.89 3.32 1.3-2.53" fill="none" stroke="#f00" stroke-linecap="round" stroke-linejoin="round" stroke-width=".5"/>
  <path d="m14.7 1.46h-6.06v-6.06" fill="url(#f)" fill-rule="evenodd"/>
  <g fill="none" stroke-linecap="round" stroke-linejoin="round">
   <path d="m14.3 1.78h-6v-5.93" stroke="url(#g)"/>
   <path d="m-1.79 10.85.59 1.93 1.06-5.57 1.46 4.68 1.22-3.37.98 4.4 1.74-6.15 1.15 5.65 1.33.38.66-3.71 1.58 2.7 1.33-4.38 1.24 5.56 1.16-4.55" stroke="#008700" stroke-width=".5"/>
  </g>
 </g>
 <path d="m18 18v-10h-8c-1.11 0-2 0.69-2 2v8z" fill="#fff" fill-opacity=".65"/>
 <rect transform="scale(1,-1)" x="9.5" y="-23.5" width="14" height="14" rx=".59" ry=".51" fill="#6565d0" fill-rule="evenodd" stroke="#3f4397" stroke-dashoffset="21.4" stroke-linecap="square" stroke-linejoin="round"/>
 <path d="m21 10v7h-9v-7z" fill="#fff" fill-opacity=".93"/>
 <path d="m13.5 23.5h6v-5h-6z" fill="#e5e5f1" stroke="#a7aada" stroke-linecap="square"/>
 <path d="m15 22h1v-2h-1z" fill="#373a6c" fill-opacity=".72"/>
 <g fill="#fafafa" stroke="#b6b7cb">
  <path d="m12 9.5h9m-8 2h4m-4 2h7"/>
  <path d="m12 9.5h9m-8 2h4m-4 4h5"/>
 </g>
</svg>
