<svg height="24" width="24" xmlns="http://www.w3.org/2000/svg" xmlns:xlink="http://www.w3.org/1999/xlink">
<linearGradient id="a" gradientUnits="userSpaceOnUse" x1="20.57" x2="12.2" y1="21.11" y2="12.88">
<stop offset="0" stop-color="#da2424"/>
<stop offset="1" stop-color="#ee8181"/>
</linearGradient>
<linearGradient id="b">
<stop offset="0" stop-color="#fdffff"/>
<stop offset="1" stop-color="#b2d3fa"/>
</linearGradient>
<linearGradient id="c">
<stop offset="0" stop-color="#92b1de"/>
<stop offset="1" stop-color="#525f96"/>
</linearGradient>
<linearGradient id="d" gradientTransform="matrix(1.01 0 0 .91 -6.68 -6.96)" gradientUnits="userSpaceOnUse" x1="5" x2="20" xlink:href="#b" y1="3" y2="21"/>
<linearGradient id="e" gradientTransform="matrix(1.01 0 0 .91 -6.68 -6.96)" gradientUnits="userSpaceOnUse" x1="17.56" x2="4.4" xlink:href="#c" y1="5.82" y2="23.8"/>
<linearGradient id="f" gradientUnits="userSpaceOnUse" x1="8.96" x2="11.96" xlink:href="#b" y1="1.46" y2="-1.54"/>
<linearGradient id="g" gradientUnits="userSpaceOnUse" x1="11.96" x2="8.96" xlink:href="#c" y1="-1.54" y2="1.46"/>
<g opacity=".69" transform="translate(3.16 4.72)">
<path d="m14.34 2.04v13.74h-17v-20h11.02" style="fill-rule:evenodd;stroke-linecap:round;stroke-linejoin:round;stroke-dashoffset:21.44;fill:url(#d);stroke:url(#e)"/>
<path d="m-1.81 2.84 1.18-4.64 1.31 5.92 1.81-3.98.87 5.06 1.84-6.51 1.79 6.59 1.48-3.4 1.53 2.63 1.61-4.15.89 3.32 1.3-2.53" fill="none" stroke="#f00" stroke-linecap="round" stroke-linejoin="round" stroke-width=".5"/>
<path d="m14.73 1.46h-6.06v-6.06" fill="url(#f)" fill-rule="evenodd"/>
<g fill="none" stroke-linecap="round" stroke-linejoin="round">
<path d="m14.34 1.78h-6v-5.93" stroke="url(#g)"/>
<path d="m-1.79 10.85.59 1.93 1.06-5.57 1.46 4.68 1.22-3.37.98 4.4 1.74-6.15 1.15 5.65 1.33.38.66-3.71 1.58 2.7 1.33-4.38 1.24 5.56 1.16-4.55" stroke="#008700" stroke-width=".5"/>
</g>
</g>
<path d="m10.61 13.46 3.56 3.51-3.54 3.54 2.81 2.85 3.53-3.53 3.54 3.54 2.83-2.83-3.54-3.54 3.54-3.54-2.81-2.85-3.54 3.54-3.56-3.51z" fill="url(#a)" stroke="#af1d1d"/>
<path d="m9.21 20.52 3.53-3.53-3.53-3.54 4.24-4.24 3.54 3.53" fill="none" stroke="#fff" stroke-linecap="square" stroke-opacity=".63"/>
</svg>
