<svg height="24" width="24" xmlns="http://www.w3.org/2000/svg" xmlns:xlink="http://www.w3.org/1999/xlink">
<linearGradient id="a" gradientTransform="matrix(.95 0 0 1 4.49 2.94)" gradientUnits="userSpaceOnUse" x1="13.05" x2="4.09" y1="18.97" y2="15.05">
<stop offset="0" stop-color="#f3c668"/>
<stop offset="1" stop-color="#f9f398"/>
</linearGradient>
<linearGradient id="b" gradientTransform="matrix(.95 0 0 1 4.49 2.94)" gradientUnits="userSpaceOnUse" x1="13.05" x2="4.09" y1="18.97" y2="15.05">
<stop offset="0" stop-color="#705526"/>
<stop offset="1" stop-color="#c69c59"/>
</linearGradient>
<path d="m2.5 24v-23" fill="none" stroke="#6b7c98"/>
<path d="m.5 3 2-3 2 3" fill="#6b7c98" fill-rule="evenodd"/>
<path d="m19 7 5 3.5-5 3.5" fill="#e65216" fill-rule="evenodd"/>
<path d="m0 10.5h21" fill="none" stroke="#e65216" stroke-width="3"/>
<path d="m21.5 15.5-14 .03c-1.3-.04-2 .88-2 1.99l.01 4c0 1.19.88 1.99 2 1.99l14-.03c1.07 0 2-.98 2-1.99l-.01-4c-.01-1.33-.93-1.99-2-1.99zm-12.02 2.04c1.19 0 2 1.04 2 2s-.79 2-2 2-2-1.04-2-2 .81-2 2-2z" fill="url(#a)" stroke="url(#b)" stroke-linejoin="round"/>
</svg>
