<svg height="24" width="24" xmlns="http://www.w3.org/2000/svg" xmlns:xlink="http://www.w3.org/1999/xlink">
<linearGradient id="a" gradientTransform="matrix(0 .95 1 0 -12.06 -.51)" gradientUnits="userSpaceOnUse" x1="13.05" x2="4.09" y1="18.97" y2="15.05">
<stop offset="0" stop-color="#f3c668"/>
<stop offset="1" stop-color="#f9f398"/>
</linearGradient>
<linearGradient id="b" gradientTransform="matrix(0 .95 1 0 -12.06 -.51)" gradientUnits="userSpaceOnUse" x1="13.05" x2="4.09" y1="18.97" y2="15.05">
<stop offset="0" stop-color="#705526"/>
<stop offset="1" stop-color="#c69c59"/>
</linearGradient>
<path d="m0 21.5h23" fill="none" stroke="#6b7c98"/>
<path d="m21 19.5 3 2-3 2" fill="#6b7c98" fill-rule="evenodd"/>
<path d="m10 5 3.5-5 3.5 5" fill="#18b26f" fill-rule="evenodd"/>
<path d="m13.5 24v-21" fill="none" stroke="#18b26f" stroke-width="3"/>
<path d="m.5 16.5.03-14c-.04-1.3.88-2 1.99-2l4 .01c1.19 0 1.99.88 1.99 2l-.03 14c0 1.07-.98 2-1.99 2l-4-.01c-1.33-.01-1.99-.93-1.99-2zm2.04-12.02c0 1.19 1.04 2 2 2s2-.79 2-2-1.04-2-2-2-2 .81-2 2z" fill="url(#a)" stroke="url(#b)" stroke-linejoin="round"/>
</svg>
