<svg height="24" width="24" xmlns="http://www.w3.org/2000/svg" xmlns:xlink="http://www.w3.org/1999/xlink">
<linearGradient id="a" gradientUnits="userSpaceOnUse" x1="5.45" x2="10.73" y1="21.78" y2="16.77">
<stop offset="0" stop-color="#c7c7c7"/>
<stop offset="1" stop-color="#fff"/>
</linearGradient>
<linearGradient id="b" gradientTransform="matrix(.54 0 0 .61 -.53 11.38)" gradientUnits="userSpaceOnUse" x1="1" x2="23" y1="3.5" y2="3.5">
<stop offset="0" stop-color="#4c407b"/>
<stop offset="1" stop-color="#6ccdf6"/>
</linearGradient>
<linearGradient id="c" gradientTransform="matrix(.54 0 0 .61 -.53 11.38)" gradientUnits="userSpaceOnUse" x1="1" x2="23" y1="3.5" y2="3.5">
<stop offset="0" stop-color="#443289"/>
<stop offset="1" stop-color="#4aa7cf"/>
</linearGradient>
<g id="d" stroke-linecap="round" stroke-width="1.2" transform="matrix(.91 0 0 .82 .04 -9.83)">
<rect fill="url(#a)" height="11.4" rx=".86" ry=".87" stroke="#6b6868" stroke-linejoin="round" stroke-width=".72" width="11.4" x=".3" y="12.3"/>
<path d="m1.14 12.29h9.71c.48 0 .86.43.86.97v1.46h-11.42v-1.46c0-.54.38-.97.86-.97z" fill="url(#b)" stroke="url(#c)" stroke-width=".69"/>
<g fill="#fcfdff" stroke="#f1fcff" stroke-linejoin="round" stroke-width="1.2">
<path d="m20.6 3.63c0 .33-.28.59-.64.59-.35 0-.64-.26-.64-.59s.28-.59.64-.59c.35 0 .64.26.64.59z" stroke-width="1.2" transform="matrix(.6 0 0 .6 -3.65 11.27)"/>
<path d="m20.6 3.63c0 .33-.28.59-.64.59-.35 0-.64-.26-.64-.59s.28-.59.64-.59c.35 0 .64.26.64.59z" stroke-width="1.2" transform="matrix(.6 0 0 .6 -1.8 11.27)"/>
</g>
</g>
<use id="e" height="100%" transform="translate(12)" width="100%" xlink:href="#d"/>
<g transform="translate(0 12)">
<use height="100%" width="100%" xlink:href="#d"/>
<use height="100%" width="100%" xlink:href="#e"/>
</g>
</svg>
